<?xml version="1.0" standalone="no"?>
<!DOCTYPE svg PUBLIC "-//W3C//DTD SVG 1.1//EN" "http://www.w3.org/Graphics/SVG/1.1/DTD/svg11.dtd" >
<svg xmlns="http://www.w3.org/2000/svg">
<metadata></metadata>
<defs>
<font id="avertalight" horiz-adv-x="1200" >
<font-face units-per-em="2048" ascent="1607" descent="-441" />
<missing-glyph horiz-adv-x="578" />
<glyph horiz-adv-x="0" />
<glyph unicode="&#xd;" horiz-adv-x="682" />
<glyph unicode=" "  horiz-adv-x="578" />
<glyph unicode="&#x09;" horiz-adv-x="578" />
<glyph unicode="&#xa0;" horiz-adv-x="578" />
<glyph unicode="!" horiz-adv-x="462" d="M138 78q0 26 12 47t33 33t47 12q37 0 65 -26q27 -25 27 -65q0 -37 -27 -63q-28 -26 -64 -26l-1 -3q-26 0 -47 12t-33 33t-12 46zM169 1508h132l-21 -1108h-91z" />
<glyph unicode="&#x22;" horiz-adv-x="615" d="M87 984l70 471h127l-99 -471h-98zM325 984l68 471h129l-98 -471h-99z" />
<glyph unicode="#" horiz-adv-x="1284" d="M93 376v89h270l54 354h-282v88h296l66 436h90l-67 -436h358l66 436h90l-67 -436h260v-88h-274l-53 -354h284v-89h-298l-66 -438h-89l67 438h-358l-68 -438h-90l68 438h-257zM451 465h359l53 354h-357z" />
<glyph unicode="$" horiz-adv-x="1153" d="M130 187l74 86q84 -83 194 -130q107 -46 218 -46q136 0 225 66t89 180q0 31 -6 56q-6 27 -15 47q-10 23 -25 41q-15 17 -33 34q-17 16 -43 30q-36 20 -48 26q-23 11 -55 24q-21 8 -60 22l-66 22q-179 58 -251 98q-146 81 -168 216q-5 32 -5 60q0 71 26 134q25 61 75 108 q49 46 126 73q75 26 171 28v269h94v-276q93 -14 186 -52q96 -40 162 -88l-71 -86q-77 56 -178 90q-103 35 -184 35q-128 0 -207 -60t-79 -166q0 -114 116 -182q62 -36 222 -89q189 -63 260 -103q140 -80 168 -214q8 -42 8 -84l1 -7q0 -154 -107 -253q-106 -98 -296 -106 v-262h-94v264q-242 19 -424 195z" />
<glyph unicode="%" horiz-adv-x="2023" d="M100 1067q0 109 50 200q49 90 143 144q93 54 212 54q113 0 204 -49q91 -50 147 -141q55 -91 55 -208q0 -83 -30 -156q-31 -75 -82 -128q-53 -55 -129 -86q-75 -31 -165 -31q-111 0 -203 50t-147 141t-55 210zM205 1066q0 -133 87 -217t214 -84l-1 -3q133 0 216 87 q83 88 83 215q0 133 -85 217t-213 84q-133 0 -217 -86q-84 -85 -84 -213zM650 9l632 1461l96 -37l-631 -1460zM1101 387q0 109 50 200q49 90 143 144q93 54 212 54q113 0 204 -49q92 -50 147 -141t55 -208q0 -109 -50 -201q-49 -90 -143 -145q-93 -54 -212 -54h-1 q-111 0 -203 50q-91 49 -147 141q-55 91 -55 209zM1207 386q0 -132 87 -216t213 -84v-3q133 0 216 87q83 88 83 214q0 133 -85 217t-213 84q-133 0 -217 -86q-84 -85 -84 -213z" />
<glyph unicode="&#x26;" horiz-adv-x="1334" d="M114 405q0 132 78 249t206 183l-187 215q6 184 120 297q115 113 293 113q64 0 123 -15t102 -39q45 -25 81 -58q39 -35 63 -70q25 -36 42 -75l-100 -45q-37 86 -111 138t-186 54q-139 1 -219 -74t-84 -196l652 -756h3q46 75 68 161q23 89 23 173l113 1q0 -113 -31 -222 q-31 -111 -96 -201v-4l203 -235l-141 1l-140 155h-3q-158 -168 -418 -168q-128 0 -231 51t-163 147t-60 220zM232 409q0 -89 42 -159t122 -111t181 -41q205 0 339 135l1 4l-447 515q-70 -33 -124 -87t-84 -120t-30 -135v-1z" />
<glyph unicode="'" horiz-adv-x="377" d="M87 984l70 471h127l-99 -471h-98z" />
<glyph unicode="(" horiz-adv-x="550" d="M134 607q0 255 61 487q62 235 169 415l87 -44q-97 -179 -153 -399q-55 -219 -55 -457q0 -239 53 -451q53 -211 150 -410l-92 -41l-1 -3q-219 422 -219 903z" />
<glyph unicode=")" horiz-adv-x="587" d="M135 1468l87 44q107 -180 169 -415q61 -232 61 -487q0 -482 -219 -903l-95 43q64 130 108 258q43 125 70 283q27 156 27 320q0 239 -55 458q-56 221 -153 399z" />
<glyph unicode="*" horiz-adv-x="845" d="M124 1258l43 73l222 -137l-7 261h82l-8 -261l222 137l41 -73l-231 -123l232 -122l-42 -72l-222 136l8 -261h-82l7 261l-222 -138l-41 74l230 121z" />
<glyph unicode="+" horiz-adv-x="1195" d="M121 511v110h422v422h109v-422h421v-110h-421v-420h-109v420h-422z" />
<glyph unicode="," horiz-adv-x="406" d="M73 -265l70 471h128l-114 -471h-84z" />
<glyph unicode="-" horiz-adv-x="850" d="M125 578v110h600v-110h-600z" />
<glyph unicode="." horiz-adv-x="460" d="M137 78q0 26 12 47t33 33t47 12q37 0 65 -26q27 -25 27 -65q0 -37 -27 -63q-28 -26 -64 -26l-1 -3q-26 0 -47 12t-33 33t-12 46z" />
<glyph unicode="/" horiz-adv-x="820" d="M-51 -187l792 1745l94 -47l-791 -1743z" />
<glyph unicode="0" horiz-adv-x="1275" d="M122 699q0 153 35 285q34 130 99 226q64 96 162 150t219 54q112 0 205 -46q94 -46 165 -135q70 -88 109 -225q39 -136 39 -307q0 -155 -34 -282q-35 -129 -99 -225q-65 -96 -163 -150q-99 -54 -222 -54v-4q-109 0 -205 47q-94 46 -163 135q-69 88 -108 225t-39 306z M235 696q0 -146 30 -261t84 -190t128 -114q73 -39 162 -39l-2 -2q127 0 219 78q92 79 137 213q45 135 45 315q0 121 -19 217q-20 101 -55 171q-36 72 -86 122t-110 74t-130 24q-127 0 -219 -77q-91 -77 -138 -213q-46 -135 -46 -318z" />
<glyph unicode="1" horiz-adv-x="720" d="M51 1124l377 282h94v-1406h-108v1271l-307 -231z" />
<glyph unicode="2" horiz-adv-x="1039" d="M74 83l505 507q58 60 89 96q37 44 71 93q36 52 54 107q18 54 18 110q0 136 -87 225t-223 89q-113 0 -198 -55t-135 -162l-87 56q60 124 167 195t258 71q83 0 157 -28q75 -29 133 -79q59 -51 93 -130q35 -81 35 -174q0 -119 -58 -231q-58 -113 -186 -240l-420 -423v-6h681 v-104h-866z" />
<glyph unicode="3" horiz-adv-x="1071" d="M48 249l98 43q44 -93 137 -146q94 -53 229 -53q94 0 171 36q75 35 121 104q45 67 45 156q0 60 -22 110q-23 51 -65 92q-41 39 -110 64q-68 24 -153 24h-126v104h146q77 0 135 21t93 57q35 37 53 81q18 45 18 98q0 121 -88 194q-89 74 -223 74q-205 0 -315 -149l-92 48 q61 97 163 152q104 56 246 56q119 0 213 -42q95 -42 152 -126t57 -196q0 -51 -14 -101q-13 -48 -41 -89q-27 -40 -67 -73q-40 -32 -91 -52v-4l-7 -2q116 -44 182 -138q66 -95 66 -221q0 -111 -58 -199t-160 -136t-226 -48q-171 0 -292 69t-175 192z" />
<glyph unicode="4" horiz-adv-x="1138" d="M59 258v93l699 1055h96v-1044h220v-104h-220v-258h-108v258h-687zM197 362h549v830z" />
<glyph unicode="5" horiz-adv-x="1120" d="M85 234l87 61q53 -90 148 -144q96 -54 215 -54q76 0 146 26q69 25 119 71t80 108q30 63 30 137q0 80 -30 146t-81 108q-52 43 -118 65q-69 23 -144 23q-179 0 -270 -81l-72 12l39 694h729v-103h-627l-25 -469q105 52 249 52l-1 1q96 0 180 -30q83 -30 147 -86 q63 -55 99 -141q36 -85 36 -190q0 -131 -64 -234q-65 -104 -174 -159q-110 -56 -243 -56q-145 0 -268 66q-122 66 -187 177z" />
<glyph unicode="6" horiz-adv-x="1182" d="M118 527q0 153 41 294q40 138 110 246q69 107 159 189t189 132q100 50 200 68l35 -95q-102 -24 -195 -76q-95 -53 -178 -133q-85 -82 -146 -198q-61 -117 -87 -255l2 -1q67 84 170 132q102 48 222 48l-2 -1q196 0 318 -119t122 -321q0 -75 -22 -141t-65 -123 q-42 -55 -99 -96q-57 -40 -131 -63q-72 -22 -156 -22q-103 0 -193 39q-91 39 -155 108q-65 69 -102 169q-37 99 -37 219zM227 517q0 -187 105 -304t269 -117l-3 -1q81 0 150 27t116 74t72 109q26 64 26 132q0 152 -94 243t-252 91q-71 0 -134 -21t-111 -57q-47 -35 -84 -80 q-36 -43 -60 -93v-3z" />
<glyph unicode="7" horiz-adv-x="1007" d="M64 1302v104h867v-84l-595 -1343l-116 25l583 1298h-739z" />
<glyph unicode="8" horiz-adv-x="1174" d="M94 384q0 139 77 240q77 100 201 135v3q-38 12 -74 39q-37 28 -66 64q-30 37 -48 90t-18 110q0 106 54 187t149 123t213 42q190 0 306 -99t116 -253q0 -47 -12 -90t-33 -78q-20 -33 -48 -61q-27 -27 -57 -45t-61 -27v-4l-1 -3q124 -35 201 -135q77 -101 77 -240 q0 -117 -66 -207t-177 -138t-246 -48q-108 0 -198 31q-91 31 -154 84q-63 52 -99 125q-36 72 -36 155zM211 392q0 -86 50 -156q49 -68 134 -106q83 -37 188 -37l-1 -2q84 0 155 24q70 24 119 65q48 40 75 95q27 54 27 115q0 138 -105 224q-106 86 -269 86q-164 0 -268 -85 q-105 -85 -105 -223zM277 1054l1 -1q0 -72 41 -130q40 -57 110 -87q69 -30 155 -30q135 0 221 67q87 67 87 180q0 75 -40 133t-111 90q-72 32 -159 32q-68 0 -126 -20q-57 -20 -96 -54q-38 -34 -61 -81q-22 -45 -22 -99z" />
<glyph unicode="9" horiz-adv-x="1186" d="M102 957q0 95 36 179q36 85 99 146q64 62 153 98q90 36 194 36l-3 1q102 0 192 -39q92 -40 155 -109q64 -71 102 -174q38 -105 38 -227q-1 -130 -33 -250q-32 -121 -85 -214t-125 -174q-68 -77 -152 -136q-80 -56 -164 -93q-82 -36 -164 -51l-36 105q78 18 158 53 q79 35 155 90q78 57 140 126q63 70 111 168t69 210l-3 2q-71 -83 -177 -131t-234 -48q-93 0 -170 31q-78 32 -135 87q-58 57 -89 136q-32 82 -32 178zM211 959q0 -145 93 -234q94 -89 242 -89v2q83 0 161 27t144 84t105 135q0 98 -28 178q-28 81 -78 135t-118 84 q-69 30 -148 30q-84 0 -153 -28q-71 -29 -118 -76q-48 -48 -75 -112q-27 -65 -27 -136z" />
<glyph unicode=":" horiz-adv-x="449" d="M122 77q0 26 12 47t33 33t47 12q37 0 65 -26q27 -26 27 -65q0 -38 -27 -63q-28 -26 -64 -26l-1 -3q-26 0 -47 12t-33 33t-12 46zM124 912q0 40 27 65q28 26 66 26q37 0 65 -26q27 -25 27 -65q0 -38 -27 -63q-28 -26 -64 -26l-3 -1q-21 0 -36 7q-18 8 -29 19t-19 29 q-7 15 -7 35z" />
<glyph unicode=";" horiz-adv-x="434" d="M76 -265l70 471h128l-114 -471h-84zM121 912q0 40 27 65q28 26 66 26q37 0 65 -26q27 -25 27 -65q0 -38 -27 -63q-28 -26 -64 -26h-1q-38 0 -66 26q-27 25 -27 63z" />
<glyph unicode="&#x3c;" horiz-adv-x="1170" d="M119 530v85l904 427v-121l-740 -348l740 -348v-119z" />
<glyph unicode="=" horiz-adv-x="1186" d="M132 281v110h952v-110h-952zM132 741v110h952v-110h-952z" />
<glyph unicode="&#x3e;" horiz-adv-x="1168" d="M147 106v119l740 348l-740 348v121l904 -427v-85z" />
<glyph unicode="?" horiz-adv-x="903" d="M53 1328q66 93 162 141t212 48q108 0 195 -45q88 -46 140 -130q53 -86 53 -198q0 -48 -11 -97q-10 -44 -26 -81q-16 -36 -42 -74q-24 -34 -50 -64q-22 -26 -57 -63l-37 -37l-38 -38q-12 -12 -33 -36q-19 -22 -31 -42q-8 -13 -22 -40q-12 -23 -18 -46q-6 -24 -6 -49 l-1 -78h-97l-5 111q0 28 8 60q7 30 18 51t33 51q27 36 37 48q15 17 47 53q32 35 48 54q1 1 35 39q18 20 36 41q10 12 29 38t27 44q7 17 18 42q10 25 15 53q4 24 4 57q0 127 -78 198q-79 71 -199 71q-81 0 -157 -40t-126 -114zM302 76q0 26 12 47t33 33t47 12q37 0 65 -26 q27 -25 27 -65q0 -37 -27 -63q-28 -26 -64 -26v-1q-38 0 -66 26q-27 25 -27 63z" />
<glyph unicode="@" horiz-adv-x="1852" d="M104 461q0 80 15 164t48 171t81 165q47 77 119 147q70 68 158 120q87 51 201 81t245 30l-8 -6q151 0 278 -39q129 -40 218 -106q91 -68 153 -157q63 -90 93 -193q30 -104 30 -213q0 -76 -13 -147q-14 -75 -43 -145q-30 -71 -72 -127t-105 -90q-62 -34 -139 -34 q-82 0 -135 38t-65 104q-5 27 -6 46h-6q-49 -79 -136 -122q-90 -44 -186 -44q-160 0 -264 110t-104 276q0 63 17 129q17 65 51 125q35 60 83 107t117 75q68 28 150 28q103 0 183 -44q79 -43 123 -128h5l17 162h116l-53 -566q-4 -29 -4 -64q0 -44 7 -69q8 -28 21 -41t29 -18 q13 -4 37 -4q57 0 104 28q48 28 79 73q31 44 54 104q23 61 32 118q9 60 9 119q0 81 -19 154q-20 77 -55 144q-37 70 -93 128q-57 58 -129 102q-73 44 -168 68q-96 24 -206 24q-114 0 -213 -25q-101 -25 -177 -69q-75 -43 -141 -104q-65 -61 -108 -130q-45 -73 -74 -147 q-31 -79 -44 -153q-14 -79 -14 -150q0 -136 50 -259q49 -120 137 -208q87 -87 210 -138t262 -51q102 0 220 29q115 28 208 81l47 -72q-101 -62 -226 -96q-124 -34 -251 -34q-158 0 -298 57q-139 57 -239 155q-99 97 -156 236q-57 138 -57 295zM573 504q0 -130 77 -213 q76 -82 206 -82h1q64 0 117 22t90 59q36 36 62 83q26 48 38 96q12 49 12 99q0 123 -75 204t-204 81q-75 0 -137 -30t-102 -79q-40 -50 -63 -111q-22 -60 -22 -129z" />
<glyph unicode="A" horiz-adv-x="1365" d="M63 0l557 1455h122l562 -1455h-124l-146 385h-703l-145 -385h-123zM372 495h621l-311 820h-2z" />
<glyph unicode="B" horiz-adv-x="1290" d="M188 1v1455h448q69 0 129 -9q59 -9 112 -27q51 -18 93 -47q40 -28 70 -67t45 -91q15 -53 15 -114q0 -115 -58 -206q-59 -92 -166 -131v-3l-1 -1q49 -11 89 -31q45 -22 80 -52q38 -31 66 -72t45 -96q16 -54 16 -118q0 -87 -30 -158t-90 -123t-155 -81q-93 -28 -218 -28 h-490zM301 109h345l-2 -2q186 0 294 72t108 213q0 145 -101 225t-288 80h-356v-588zM301 806h350q48 0 93 9q44 9 88 30t75 51t51 78q20 49 20 108q0 262 -371 262h-305z" />
<glyph unicode="C" horiz-adv-x="1483" d="M124 718q0 124 30 237q30 112 90 205q61 95 145 161q85 67 201 105q117 38 252 38q104 0 200 -27q97 -27 191 -90q94 -62 171 -158l-89 -73q-92 114 -215 175q-122 60 -255 60q-139 0 -252 -48q-112 -48 -187 -132q-74 -83 -115 -199q-40 -114 -40 -250q0 -143 46 -259 q47 -117 126 -195t188 -120q108 -42 233 -42q280 0 471 233l89 -73q-219 -274 -560 -274l-3 -4q-119 0 -225 30q-107 30 -196 91q-90 61 -156 147q-65 84 -103 204q-37 117 -37 258z" />
<glyph unicode="D" horiz-adv-x="1479" d="M186 1454h409q169 0 312 -54t240 -150q97 -95 151 -231q54 -135 54 -295q0 -161 -52 -295q-52 -135 -148 -229t-237 -147q-142 -53 -312 -53h-415zM301 109l292 -1q143 0 260 46q119 47 201 127q83 82 128 195q45 114 45 247q0 137 -46 251q-47 117 -127 197t-199 127 q-117 46 -258 46h-296v-1235z" />
<glyph unicode="E" d="M188 0v1455h868v-110h-753v-565h626v-110h-626v-560h796v-110h-911z" />
<glyph unicode="F" horiz-adv-x="1170" d="M188 0v1455h907v-110h-792v-580h679v-110h-679v-655h-115z" />
<glyph unicode="G" horiz-adv-x="1566" d="M125 724q0 162 52 297q53 137 145 234q93 98 226 153q132 55 291 55q328 0 543 -215l-83 -74q-184 175 -460 175q-100 0 -193 -29q-90 -28 -163 -83q-74 -55 -125 -130q-52 -77 -81 -174q-28 -96 -28 -208q0 -179 74 -321q73 -140 210 -220q136 -79 312 -79 q281 0 447 137v373h-482v110l593 -1v-545q-103 -91 -249 -141q-144 -49 -313 -49q-154 0 -287 53t-227 147q-93 93 -148 233q-54 138 -54 302z" />
<glyph unicode="H" horiz-adv-x="1462" d="M188 0v1455h115v-712h856v712h115v-1455h-115v633h-856v-633h-115z" />
<glyph unicode="I" horiz-adv-x="517" d="M200 0v1455h116v-1455h-116z" />
<glyph unicode="J" horiz-adv-x="989" d="M63 174l64 89q64 -73 146 -117t164 -44q66 0 113 19q49 20 86 61q38 42 57 112q19 69 19 168v993h115v-1004q0 -232 -96 -346t-294 -114l-2 -1q-96 0 -198 48q-103 48 -174 136z" />
<glyph unicode="K" horiz-adv-x="1303" d="M188 0v1455h115v-890h2l755 890h151l-578 -674l590 -781h-147l-521 687h-2l-250 -291v-396h-115z" />
<glyph unicode="L" horiz-adv-x="1126" d="M188 0v1455h115v-1345h762v-110h-877z" />
<glyph unicode="M" horiz-adv-x="1782" d="M188 0v1455h117l585 -1004h4l584 1004h116v-1455h-115v1224h-3l-543 -922h-84l-543 922h-3v-1224h-115z" />
<glyph unicode="N" horiz-adv-x="1528" d="M188 0v1455h113l919 -1257h4v1257h115v-1455h-117l-916 1251h-3v-1251h-115z" />
<glyph unicode="O" horiz-adv-x="1697" d="M127 729q0 152 53 288q52 134 146 234q93 99 230 156q136 57 294 57q149 0 281 -54t229 -148t153 -233t56 -300q0 -162 -56 -303q-55 -140 -153 -234q-97 -94 -229 -148t-281 -54h-2q-158 0 -294 57t-229 156q-94 100 -146 235t-52 291zM248 729q0 -103 27 -198 q26 -92 80 -172q52 -77 125 -135t167 -89q93 -31 201 -31l-4 -1q125 0 233 46q109 46 190 127q82 82 128 198q47 118 47 254q0 135 -47 253t-127 198q-81 81 -190 126t-232 45q-134 0 -245 -49q-113 -50 -189 -133q-76 -84 -120 -198q-44 -115 -44 -241z" />
<glyph unicode="P" horiz-adv-x="1239" d="M185 1454h493q122 0 213 -33q92 -33 147 -91t82 -135t27 -171q0 -89 -24 -161q-24 -73 -67 -123q-43 -51 -106 -85q-63 -35 -138 -51q-73 -16 -165 -16h-344v-588h-115zM300 697h340q102 0 176 25q76 26 119 70q45 46 65 103q21 59 21 129q0 158 -92 239q-91 81 -252 81 h-377v-647z" />
<glyph unicode="Q" horiz-adv-x="1726" d="M127 729q0 152 53 288q52 134 146 234q93 99 230 156q136 57 294 57q149 0 281 -54t229 -148t153 -233t56 -300q0 -286 -163 -485l195 -175l-78 -92l-202 183q-95 -82 -216 -126q-123 -44 -258 -44q-159 0 -294 57t-228 156q-94 100 -146 235t-52 291zM246 728 q0 -132 45 -247q45 -116 124 -198q80 -83 192 -131q113 -48 241 -48l-2 -2q223 0 383 137l-185 168l75 89l191 -172q132 168 132 403q0 133 -45 249t-123 198t-189 129q-112 47 -237 47q-128 0 -241 -48t-192 -130t-124 -198t-45 -246z" />
<glyph unicode="R" horiz-adv-x="1299" d="M189 2v1455h497q119 0 209 -33q91 -34 146 -91q57 -60 83 -136q27 -78 27 -172q0 -190 -102 -298t-280 -132v-2l410 -593l-144 2l-402 588h-329v-588h-115zM304 701h343q101 0 176 24t120 69t66 103q21 59 21 130q0 158 -92 239t-258 81h-376v-646z" />
<glyph unicode="S" horiz-adv-x="1180" d="M98 210l75 90q79 -96 195 -147t237 -51q151 0 249 72t98 191q0 134 -106 210q-60 43 -210 101q-43 16 -50 18q-171 68 -237 105q-164 95 -188 240q-5 30 -5 57q0 77 33 146t90 117q58 49 137 77q78 28 168 28q113 0 227 -42q116 -43 215 -121l-74 -94q-84 68 -183 106 q-96 37 -187 37q-60 0 -112 -16q-54 -17 -97 -46t-70 -78q-27 -48 -27 -107q-2 -117 105 -188q51 -35 201 -94q26 -9 39 -15q179 -70 228 -96q143 -74 191 -178q30 -66 30 -154q0 -116 -63 -206t-169 -136q-105 -46 -237 -46l4 -3q-142 0 -273 55q-132 56 -234 168z" />
<glyph unicode="T" horiz-adv-x="1157" d="M62 1345v110h1032v-110h-462v-1345h-115v1345h-455z" />
<glyph unicode="U" horiz-adv-x="1435" d="M167 587v869h115v-860q0 -149 54 -260t152 -171t227 -60q196 0 316 132t120 360v860h115v-869q0 -136 -39 -249t-111 -189q-71 -76 -174 -118q-102 -42 -225 -42l-3 1q-120 0 -222 41q-101 41 -173 116q-71 74 -112 188q-40 111 -40 251z" />
<glyph unicode="V" horiz-adv-x="1347" d="M68 1455h126l479 -1283h3l481 1283h126l-554 -1455h-108z" />
<glyph unicode="W" horiz-adv-x="2073" d="M74 1455h122l404 -1264h4l368 1264h131l366 -1268h4l403 1268h123l-468 -1455h-120l-372 1284h-2l-375 -1284h-120z" />
<glyph unicode="X" horiz-adv-x="1315" d="M74 0l508 726l-506 729h136l445 -633h3l439 633h138l-504 -729l508 -726h-140l-441 628h-4l-442 -628h-140z" />
<glyph unicode="Y" d="M40 1455h135l419 -675h8l421 675h136l-504 -799v-656h-115v656z" />
<glyph unicode="Z" horiz-adv-x="1244" d="M122 0v96l828 1245v4h-781v110h934v-97l-829 -1243v-5h836v-110h-988z" />
<glyph unicode="[" horiz-adv-x="597" d="M146 -292v1780h351v-92h-249v-1596h249v-92h-351z" />
<glyph unicode="\" horiz-adv-x="833" d="M-15 1511l94 47l792 -1745l-95 -45z" />
<glyph unicode="]" horiz-adv-x="597" d="M100 -200h249v1596h-249v92h351v-1780h-351v92z" />
<glyph unicode="^" horiz-adv-x="959" d="M137 1023l292 432h100l293 -432h-115l-229 342l-229 -342h-112z" />
<glyph unicode="_" horiz-adv-x="1072" d="M-5 -57h1081v-93h-1081v93z" />
<glyph unicode="`" horiz-adv-x="1043" d="M298 1398h136l246 -283h-127z" />
<glyph unicode="a" horiz-adv-x="1225" d="M98 489q0 145 61 261q62 117 172 186q111 69 250 69q117 0 216 -54q100 -55 161 -151h4v195l109 -2v-995h-103v191h-3q-60 -95 -157 -147q-98 -53 -222 -53q-100 0 -189 36q-90 37 -155 100q-66 65 -105 159q-39 95 -39 205zM208 485q0 -111 48 -201t136 -142t201 -52 l1 -4q74 0 143 29q68 29 119 80t81 126t30 162q0 115 -48 209q-48 95 -133 150q-86 56 -192 56q-80 0 -150 -30q-71 -30 -123 -82q-53 -53 -83 -131t-30 -170z" />
<glyph unicode="b" horiz-adv-x="1242" d="M166 0v1508h108v-708h5q61 96 161 151q99 54 216 54l1 -1q85 0 159 -25q76 -26 134 -72t102 -110q44 -63 66 -142q23 -81 23 -165q0 -111 -39 -205q-39 -95 -105 -159q-65 -63 -155 -100q-88 -36 -189 -36q-124 0 -222 53q-97 52 -157 147h-3v-190h-105zM271 489 q0 -56 14 -112q13 -51 38 -97q23 -41 59 -79q35 -37 76 -60q40 -23 90 -37q46 -13 98 -13l-4 3q113 0 201 52q87 52 136 143q48 90 48 201q0 92 -30 170t-83 131t-123 83t-148 30q-79 0 -150 -33q-70 -33 -118 -88q-47 -54 -76 -132q-28 -75 -28 -162z" />
<glyph unicode="c" horiz-adv-x="1059" d="M100 494q0 148 62 264q61 115 173 180t254 65q111 0 213 -43q104 -44 174 -124l-77 -69q-53 62 -132 98t-174 36q-112 0 -199 -51t-135 -144t-48 -210q0 -118 48 -210t135 -143t199 -51q92 0 176 35q83 35 137 96l74 -71q-66 -72 -171 -117t-223 -45l-1 -4 q-142 0 -252 64t-172 180q-61 115 -61 264z" />
<glyph unicode="d" horiz-adv-x="1240" d="M101 489q0 109 36 203q36 95 99 164q62 68 153 109q89 40 195 40q117 0 216 -54q100 -55 161 -151h5v708l108 -3v-1508h-105v189h-4q-39 -62 -94 -105q-57 -45 -127 -68q-72 -24 -155 -24q-101 0 -189 36q-90 37 -155 100q-66 65 -105 159q-39 95 -39 205zM210 484 q0 -111 48 -201t136 -142t201 -52v-4q74 0 143 29q68 29 119 80t81 126t30 162t-28 162q-29 78 -76 132q-48 55 -118 88t-150 33t-150 -30q-71 -30 -123 -82q-53 -53 -83 -131t-30 -170z" />
<glyph unicode="e" horiz-adv-x="1112" d="M99 498q0 110 36 204q36 95 99 161q64 67 148 104q87 38 183 38q133 0 237 -63t159 -172t55 -246l2 -1q0 -44 -3 -53h-801q7 -169 111 -274q103 -105 260 -105q98 0 177 40q80 41 135 111l77 -66q-65 -86 -165 -136q-98 -49 -225 -49q-103 0 -192 37q-90 37 -154 103 t-102 161q-37 93 -37 206zM218 569h692q-11 98 -54 173q-44 75 -115 117q-72 42 -163 42v-2q-92 0 -168 -40q-75 -40 -127 -116t-65 -174z" />
<glyph unicode="f" horiz-adv-x="671" d="M81 895v100h130v220q0 151 69 228q69 76 192 76q113 0 213 -58l-23 -96q-93 51 -181 51q-75 0 -118 -51q-43 -50 -43 -159v-211h317v-100h-317v-895h-108l-1 895h-130z" />
<glyph unicode="g" horiz-adv-x="1216" d="M100 508q0 104 35 197q35 92 96 158q62 66 152 104q91 38 195 38q115 0 212 -49q98 -50 162 -138h4v177l102 1v-948q0 -104 -28 -187q-29 -84 -85 -145q-57 -62 -148 -96q-90 -34 -211 -34q-222 0 -405 111l27 102q93 -58 183 -85q89 -27 195 -27q90 0 162 26 q71 26 116 72q44 46 67 108q23 63 23 137v170h-4q-62 -87 -156 -135t-213 -48q-99 0 -189 35q-88 34 -153 98q-65 63 -102 156q-37 92 -37 202zM205 510q0 -88 30 -161t81 -123q52 -50 120 -77q69 -27 145 -27l-1 -3q82 0 153 30q69 29 118 83q48 52 75 126t27 159 q0 68 -18 128t-53 107q-34 46 -81 81q-45 34 -102 52q-55 18 -117 18q-110 0 -195 -51q-86 -51 -134 -141t-48 -201z" />
<glyph unicode="h" horiz-adv-x="1157" d="M166 -1v1508h108v-707h4q62 96 164 151q100 54 222 54l1 -3q165 0 255 -100t90 -315v-590h-108v576q0 97 -19 161q-19 66 -57 102t-82 51q-45 15 -105 15q-165 0 -265 -112t-100 -298v-493h-108z" />
<glyph unicode="i" horiz-adv-x="467" d="M143 1294q0 37 26 65q26 27 65 27q38 0 65 -27t27 -64t-27 -63q-28 -26 -64 -26l-1 -1q-25 0 -46 12t-33 32q-12 19 -12 45zM178 -1v995h108v-995h-108z" />
<glyph unicode="j" horiz-adv-x="425" d="M-110 -385l17 101q50 -32 115 -32q66 0 105 43t39 133v1133h108v-1133q0 -126 -57 -201t-173 -75l-2 -1q-80 0 -152 32zM128 1290q0 37 26 65q25 27 65 27q38 0 65 -27t27 -64t-27 -63q-28 -26 -64 -26l-1 -1q-39 0 -65 26t-26 63z" />
<glyph unicode="k" horiz-adv-x="1040" d="M166 0v1508h108v-1135h3l564 622h138l-382 -421l382 -574h-126l-330 490h-3l-246 -271v-219h-108z" />
<glyph unicode="l" horiz-adv-x="465" d="M178 0v1508h108v-1508h-108z" />
<glyph unicode="m" horiz-adv-x="1791" d="M165 -2v995h108v-189h4q61 94 155 147t197 53q114 0 192 -54t114 -161h6q40 68 96 116q58 49 127 74q72 26 148 26l-4 -1q167 0 252 -106t85 -318v-583h-108v549q0 100 -16 167q-17 70 -49 111q-33 42 -79 60q-47 18 -109 18q-68 0 -126 -30q-59 -30 -102 -82 q-44 -53 -69 -130q-25 -76 -25 -169v-495h-108v558q0 184 -65 266q-65 81 -185 81q-142 0 -237 -113q-94 -112 -94 -297v-493h-108z" />
<glyph unicode="n" horiz-adv-x="1146" d="M166 -1v995h108v-194h4q62 96 164 151q100 54 222 54l1 -1q158 0 246 -100q89 -101 89 -315v-590h-108v576q0 79 -13 134q-13 57 -36 93q-23 37 -55 59q-34 23 -69 32q-36 9 -80 9q-165 0 -265 -112t-100 -298v-493h-108z" />
<glyph unicode="o" horiz-adv-x="1211" d="M100 494q0 105 36 198q36 92 101 162q63 68 161 109q95 40 208 40q142 0 258 -63q115 -63 181 -180t66 -265q0 -147 -66 -263q-67 -117 -181 -179q-116 -63 -258 -63l-1 -2q-113 0 -208 40t-160 108t-101 161t-36 197zM207 493q0 -112 49 -203q50 -92 141 -146t207 -54 l-4 -1q109 0 199 51q91 51 143 144q53 94 53 210q0 90 -31 165q-32 77 -84 129q-53 53 -125 83t-154 30q-116 0 -207 -55t-139 -148t-48 -205z" />
<glyph unicode="p" horiz-adv-x="1241" d="M167 -404v1400h108v-197h4q62 98 161 152t216 54l3 2q139 0 250 -69q110 -69 172 -186q61 -116 61 -261q0 -111 -39 -205t-105 -159q-65 -63 -155 -100q-89 -36 -189 -36q-123 0 -219 51q-95 51 -156 143h-4v-589h-108zM275 490q0 -69 20 -132q20 -62 54 -110 q35 -49 81 -83q48 -35 102 -53q55 -18 116 -18l-1 -1q113 0 201 52q87 52 136 143q48 90 48 201q0 92 -30 170t-83 131t-123 83q-71 30 -148 30q-107 0 -192 -55t-133 -150q-48 -94 -48 -208z" />
<glyph unicode="q" horiz-adv-x="1239" d="M104 488q0 108 36 203t99 164q62 68 153 109q89 40 195 40q117 0 216 -54t161 -152h4v197l111 -2v-1400h-108v589h-4q-61 -92 -156 -143q-96 -51 -219 -51q-100 0 -189 36q-90 37 -155 100q-66 64 -105 159t-39 205zM215 485q0 -111 48 -201t136 -142t201 -52l-2 -3 q74 0 143 29q68 28 119 80q51 51 81 126t30 162t-28 162q-29 78 -76 132q-48 55 -118 88q-71 33 -150 33q-45 0 -87 -9q-44 -10 -80 -28q-41 -21 -71 -46q-33 -27 -60 -63q-26 -35 -46 -76q-19 -41 -30 -90q-10 -47 -10 -102z" />
<glyph unicode="r" horiz-adv-x="702" d="M166 0v995h108v-189h5q55 94 143 147q86 52 195 52l1 -1q42 0 53 -1v-120q-41 4 -63 4q-152 0 -243 -111q-91 -110 -91 -288v-488h-108z" />
<glyph unicode="s" horiz-adv-x="887" d="M69 131l61 85q63 -61 137 -93q72 -31 183 -31q109 0 170 49q62 50 62 126q0 21 -4 36q-4 17 -15 30t-21 24q-12 12 -31 23q-7 4 -34 19q-13 7 -42 18q-10 4 -25 9.5t-20 7.5q-11 4 -53 18q-14 6 -30 10q-55 20 -93 36t-78 42q-42 26 -65 54q-24 28 -39 69t-15 90 q0 110 88 182q89 72 223 72q188 0 330 -121l-60 -85q-120 105 -281 105q-51 0 -94 -18t-70 -54t-27 -82q0 -22 6 -42t15 -33t27 -27q16 -12 31 -22q14 -10 40 -21q29 -13 43 -18q33 -12 48 -17q2 -1 4.5 -1.5t4.5 -1.5t3 -1q160 -57 204 -78q103 -52 133 -132q15 -44 15 -97 q0 -56 -22 -103q-23 -50 -64 -86q-42 -38 -108 -60q-65 -22 -149 -22h-4q-223 0 -384 141z" />
<glyph unicode="t" horiz-adv-x="746" d="M62 894v100h132v348l108 13v-361h363v-100h-363v-587q0 -111 30 -162t114 -51q90 0 188 57l28 -97q-104 -64 -228 -64l1 -2q-130 0 -186 74q-55 73 -55 218v614h-132z" />
<glyph unicode="u" horiz-adv-x="1120" d="M144 398v596h108v-563q0 -93 18 -159t54 -105t84 -57t113 -18t127 30t108 82q48 54 74 130q27 78 27 169v492l106 -2v-995h-108v184h-4q-62 -92 -153 -143q-92 -51 -192 -51q-172 0 -267 105q-95 106 -95 305z" />
<glyph unicode="v" horiz-adv-x="1052" d="M60 995h119l347 -850h5l343 850h119l-412 -995h-105z" />
<glyph unicode="w" horiz-adv-x="1567" d="M68 995h113l288 -829h4l257 829h100l264 -830h4l289 830h111l-349 -995h-112l-256 803h-4l-250 -803h-110z" />
<glyph unicode="x" horiz-adv-x="1012" d="M68 995h131l303 -406h6l303 406h132l-370 -494l373 -501h-129l-308 412h-3l-308 -412h-128l373 499z" />
<glyph unicode="y" horiz-adv-x="1070" d="M57 995h118l369 -836h5l343 836h119l-579 -1400h-117l176 432z" />
<glyph unicode="z" horiz-adv-x="944" d="M74 0v87l637 803v5h-609v100h758v-84l-639 -806v-5h645v-100h-792z" />
<glyph unicode="{" horiz-adv-x="669" d="M103 541v93q31 3 57 9q23 5 42 14q15 7 28 20q11 11 18 23q6 10 9 27t3 29v31v490q0 88 56 149q56 60 152 60h86v-85h-56q-42 0 -73 -18t-48 -50q-16 -31 -16 -72v-476l-1 -6q0 -89 -25 -133t-96 -61v-2q71 -16 97 -59q25 -41 25 -137v-430q0 -43 8 -77q7 -32 24 -51 q17 -20 42 -29t63 -9h56v-84h-86q-90 0 -149 56t-59 152v471v32q0 12 -3 30q-3 17 -9 28q-7 12 -18 23q-13 13 -28 20q-19 9 -42 14q-28 7 -57 8z" />
<glyph unicode="|" horiz-adv-x="577" d="M236 -235v1744h105v-1744h-105z" />
<glyph unicode="}" horiz-adv-x="669" d="M111 -207h56q73 0 106 39t33 129v430q0 96 25 137q26 43 97 59v2q-70 16 -96 62q-25 44 -25 134v476q0 62 -37 102t-100 40h-56v85h86q96 0 152 -60q56 -61 56 -148v-490l-3 -4v-31q0 -13 3 -29t9 -27q7 -12 18 -23q13 -13 28 -20q19 -9 42 -14q25 -6 57 -9v-93 q-29 -1 -57 -8t-42 -13q-15 -7 -28 -20q-11 -11 -18 -23q-6 -11 -9 -28q-3 -18 -3 -30v-32v-471q0 -95 -59 -151q-58 -55 -149 -55h-86v84z" />
<glyph unicode="~" horiz-adv-x="1141" d="M136 488q76 193 237 193q33 0 58 -4q28 -4 58 -15q30 -10 45 -18q4 -2 48 -22q3 -1 19 -9q4 -2 8.5 -4.5t7.5 -3.5t4 -2l19 -9q10 -6 21 -10q3 -1 9.5 -3t10.5 -4q12 -5 21 -6q3 -1 21 -5q8 -2 22 -4q7 -1 21 -1q48 0 90 30q43 31 65 85l85 -31q-14 -40 -31 -69 q-17 -30 -41 -54q-22 -22 -48 -39q-24 -16 -54 -25q-28 -9 -57 -9l5 -4q-11 0 -33 2q-13 1 -30 5q-12 3 -31 9q-21 7 -28 9q-10 3 -30 12t-27 12q-2 1 -5.5 3t-10.5 5t-12 6q-22 11 -25 12q-95 49 -162 49q-110 0 -165 -115z" />
<glyph unicode="&#xa1;" horiz-adv-x="462" d="M138 914q0 38 27 63q28 26 66 26v2q25 0 46 -12t33 -33t12 -46q0 -40 -27 -65q-28 -26 -64 -26q-38 0 -66 26q-27 25 -27 65zM169 -513l20 1108h91l21 -1108h-132z" />
<glyph unicode="&#xa2;" horiz-adv-x="1105" d="M118 608q0 214 126 354t330 153v235h90v-236q103 -9 194 -51q92 -42 156 -114l-77 -69q-25 29 -59 54t-73 42q-38 17 -87 28q-44 10 -96 10q-175 0 -285 -113q-109 -112 -109 -293q0 -182 109 -294t285 -112q93 0 180 35q86 35 141 96l75 -71v1q-41 -43 -94 -75 q-56 -34 -121 -56q-66 -22 -139 -28v-221h-90v220q-204 13 -330 152q-126 138 -126 353z" />
<glyph unicode="&#xa3;" horiz-adv-x="1148" d="M99 0l1 109h175v616h-136v97h136v136q0 94 21 171t57 129t87 87t108 51q55 16 121 16q118 0 210 -52q94 -53 155 -148l-67 -74q-50 82 -123 122q-74 41 -165 41q-136 0 -214 -88q-78 -89 -78 -276v-115h366v-97h-364v-617h702v-108h-992z" />
<glyph unicode="&#xa4;" horiz-adv-x="1026" d="M56 399l158 157q-81 104 -81 234q0 131 82 234l-159 159l58 57l158 -158q103 84 235 84t235 -83l159 159l57 -57l-158 -159q83 -107 83 -237h1q0 -133 -84 -234l159 -159l-57 -57l-159 159q-103 -82 -237 -82q-131 0 -234 82l-158 -157zM221 791q2 -120 85 -203t203 -85 l-1 -1q57 0 111 23q53 22 92 62q39 39 62 92q23 54 23 111q-2 120 -85 203q-84 84 -203 84q-77 -2 -143 -39t-105 -104q-39 -66 -39 -143z" />
<glyph unicode="&#xa5;" horiz-adv-x="1109" d="M34 1406h135l385 -678h4l386 678h134l-336 -579h232v-98h-289l-71 -123v-19h360v-98h-360v-489h-115v489h-369v98h369v19l-71 123h-298v98h241z" />
<glyph unicode="&#xa6;" horiz-adv-x="577" d="M236 -234v725h105v-725h-105zM236 790v719h105v-719h-105z" />
<glyph unicode="&#xa7;" horiz-adv-x="1094" d="M117 585q0 93 51 163t143 105q-67 42 -105 99q-37 56 -37 140q0 133 98 220q97 87 258 87q98 0 200 -37q104 -38 179 -99l-72 -82q-68 53 -148 81t-151 28q-48 0 -90 -13q-44 -14 -79 -37q-36 -24 -57 -61t-21 -84q0 -18 5 -40q5 -20 12 -35q8 -16 22 -30q19 -19 27 -26 q14 -12 34 -23q6 -3 18.5 -10t18.5 -10q24 -12 43 -20q28 -12 45 -18t48 -18q11 -5 15 -6q171 -64 217 -87q121 -60 157 -147q20 -49 20 -109q0 -86 -47 -156q-47 -69 -134 -107h-7q72 -43 111 -102t39 -144q0 -142 -105 -232t-282 -90q-119 0 -229 45q-109 45 -192 137 l73 83q64 -78 158 -118q93 -39 188 -39q72 0 135 23q60 22 100 71q39 48 39 114q0 20 -5 42q-5 20 -12 35q-8 16 -22 30q-19 19 -27 26q-11 10 -35 24q-20 12 -38 21q-20 10 -45 20q-30 12 -48 18l-52 20l-4 2l-4 2q-2 1 -4 3h-1l-1 1h-1h-1l-1 1h-1l-1 1h-1 q-180 66 -249 108q-136 82 -144 212zM221 596q0 -24 6 -45q6 -22 19 -39q14 -18 27 -33t39 -30q34 -20 46 -26q27 -13 57 -26q39 -16 61 -24q44 -16 69 -25l103 -39q57 10 102 38q44 27 69 66q25 38 25 86q0 20 -3 38q-3 19 -10 33q-10 20 -15 29q-8 14 -22 27 q-6 5 -15.5 13t-10.5 9q-10 9 -33 21q-6 3 -18.5 9.5t-17.5 9.5q-10 5 -42 19q-29 12 -45 18q-23 8 -49 19q-21 6 -28 10l-90 34q-95 -9 -156 -60t-61 -124z" />
<glyph unicode="&#xa8;" horiz-adv-x="1023" d="M252 1264q0 39 26 65t66 26q39 0 65 -26t26 -63t-26 -63q-25 -25 -65 -25l-1 -3q-39 0 -65 26t-26 63zM587 1264q0 38 27 63q28 26 64 26q25 0 46 -12t33 -33t12 -45q0 -36 -25 -61t-63 -25l-3 -1q-36 0 -64 26q-27 26 -27 62z" />
<glyph unicode="&#xa9;" horiz-adv-x="1409" d="M96 652q0 122 48 234t129 195t195 132q113 49 239 49q84 0 162 -22q79 -22 145 -63q68 -42 122 -97q56 -58 93 -124q39 -70 59 -145q21 -78 21 -160q0 -81 -21 -159q-21 -77 -60 -145t-94 -124q-54 -55 -122 -97q-66 -41 -145 -63q-78 -22 -163 -22l-4 1q-126 0 -237 49 q-113 49 -192 132q-79 82 -127 195q-48 112 -48 234zM183 651q0 -106 40 -201q41 -96 109 -166t165 -112q96 -42 203 -42l-4 -1q86 0 165 27q80 27 143 75q62 47 111 113q47 63 73 144t26 163q0 106 -40 201q-41 97 -108 167q-66 69 -164 112q-96 42 -202 42q-86 0 -165 -27 q-80 -27 -143 -75q-62 -47 -111 -113q-47 -63 -73 -144q-25 -78 -25 -163zM384 647q0 96 37 170q38 76 114 122t180 46q73 0 139 -31q68 -32 120 -96l-62 -51q-79 97 -196 97q-116 0 -180 -70q-65 -71 -65 -186q0 -118 68 -186q67 -67 177 -67q122 0 195 96l62 -52 q-101 -125 -258 -125l1 -1q-54 0 -105 14q-49 13 -91 42q-43 29 -72 67q-31 40 -47 93q-17 56 -17 118z" />
<glyph unicode="&#xaa;" horiz-adv-x="859" d="M106 1102q0 65 21 122q21 56 59 99q38 42 93 66t120 24q68 0 131 -30q65 -31 107 -82h3v106l87 -2v-597h-86v98h-3q-40 -50 -102 -78q-60 -28 -132 -28q-130 0 -214 84t-84 218zM193 1103q0 -94 63 -157t164 -63l-1 -2q94 0 159 62t65 158t-63 162t-158 66 q-97 0 -163 -63t-66 -163z" />
<glyph unicode="&#xab;" horiz-adv-x="891" d="M89 501l262 460h116l-260 -460l259 -461h-115zM414 501l262 460h116l-260 -460l259 -461h-115z" />
<glyph unicode="&#xac;" horiz-adv-x="1161" d="M129 675v106h904v-426h-106v320h-798z" />
<glyph unicode="&#xad;" horiz-adv-x="850" d="M125 578v110h600v-110h-600z" />
<glyph unicode="&#xae;" horiz-adv-x="1413" d="M97 652q0 122 48 234t129 195t195 132q115 50 239 50h-1q126 0 237 -49q112 -50 192 -132t126 -195q47 -114 47 -236q0 -97 -30 -189q-30 -90 -86 -168q-55 -75 -129 -133q-72 -56 -167 -88q-92 -31 -194 -31q-70 0 -141 17q-67 16 -129 47q-59 29 -112 72q-51 41 -93 95 q-41 53 -71 113t-45 128t-15 138zM186 649q0 -82 26 -163t73 -144q49 -66 111 -113q63 -48 143 -75q79 -27 165 -27l-1 -3q85 0 165 27q82 28 143 76q63 49 111 114q47 63 73 144t26 164q0 108 -40 203q-41 98 -109 167q-70 71 -165 113q-96 42 -203 42q-108 0 -204 -42 q-95 -42 -165 -113q-68 -70 -109 -168q-40 -96 -40 -202zM498 322v663h230q108 0 162 -55q54 -56 54 -147l-1 1q0 -57 -19 -96q-19 -40 -55 -64q-35 -23 -85 -34l189 -268h-97l-182 261h-115v-261h-81zM579 658h130q79 0 115 36t36 92q0 57 -37 90t-102 33h-142v-251z" />
<glyph unicode="&#xaf;" horiz-adv-x="952" d="M192 1207v103h568v-103h-568z" />
<glyph unicode="&#xb0;" horiz-adv-x="813" d="M124 1188q0 74 39 138t104 102q64 37 138 37t138 -37q65 -38 104 -102t39 -139q0 -111 -83 -191t-197 -80l-2 -3q-114 0 -197 81t-83 194zM216 1187q0 -76 56 -130t132 -54l3 1q31 0 59 9q27 9 51 26t41 39q18 22 27 50q9 27 9 56q0 76 -57 132q-58 56 -132 56 q-76 0 -132 -55q-57 -55 -57 -130z" />
<glyph unicode="&#xb1;" horiz-adv-x="1231" d="M123 729v110h422v422h109v-422h421v-110h-421v-420h-109v420h-422zM156 -6v110h952v-110h-952z" />
<glyph unicode="&#xb2;" horiz-adv-x="694" d="M55 966l311 289q69 63 106 120q36 55 36 114q0 65 -50 110t-126 45q-57 0 -111 -30t-84 -88l-81 58q38 72 113 116q76 44 167 44q74 0 135 -30q63 -31 101 -91q39 -61 39 -141q0 -132 -157 -277l-229 -211v-4l397 -2v-97h-566z" />
<glyph unicode="&#xb3;" horiz-adv-x="704" d="M44 1051l95 43q51 -114 207 -114q88 0 140 41q51 41 51 113q0 61 -55 103q-56 42 -148 42h-76v95h89q76 0 122 38q45 38 45 93q0 64 -47 102t-126 38q-123 0 -178 -90l-88 53q36 62 105 99q68 37 163 37q119 0 197 -60t78 -163q0 -64 -31 -113q-31 -50 -90 -78v-4l-2 1 q35 -14 61 -34t46 -48q20 -27 30 -60q10 -31 10 -69q0 -105 -80 -170t-210 -65q-111 0 -193 47q-80 46 -115 123z" />
<glyph unicode="&#xb4;" horiz-adv-x="1043" d="M363 1115l245 283h136l-254 -283h-127z" />
<glyph unicode="&#xb5;" horiz-adv-x="1156" d="M161 -405v1400h109v-536q0 -125 36 -207t102 -121t159 -39q63 0 123 29q58 29 102 81q44 53 69 130q25 76 25 169v494h108v-995h-99l-9 204h-2q-55 -100 -144 -157q-88 -57 -190 -57q-198 0 -285 153l-2 -2q6 -109 6 -224v-322h-108z" />
<glyph unicode="&#xb6;" horiz-adv-x="896" d="M110 1045q0 126 81 198t220 72h279v-1620h-82l-1 1532h-123v-1229h-84v777q-130 5 -210 75q-80 71 -80 195z" />
<glyph unicode="&#xb7;" horiz-adv-x="442" d="M125 493q0 39 27 65q28 26 66 26q37 0 65 -26q27 -26 27 -65q0 -37 -27 -63q-28 -26 -64 -26h-1q-38 0 -66 26q-27 26 -27 63z" />
<glyph unicode="&#xb8;" horiz-adv-x="792" d="M247 -300q48 -14 96 -14q33 0 61 9t46 30t18 50q0 41 -44 71t-126 30l2 52l38 84h77l-37 -79l2 -3v-2q74 -5 123 -46q50 -42 50 -113q0 -65 -51 -108q-50 -43 -147 -43q-57 0 -108 13v69z" />
<glyph unicode="&#xb9;" horiz-adv-x="514" d="M41 1561l253 174h83v-842h-104v708l-180 -122z" />
<glyph unicode="&#xba;" horiz-adv-x="836" d="M104 1107q0 131 87 218t223 87q134 0 222 -85q89 -86 89 -220t-89 -220q-88 -85 -222 -85q-136 0 -223 87t-87 218zM194 1108q0 -95 61 -159t159 -64v-3q95 0 158 63t63 161q0 99 -63 162t-158 63q-98 0 -159 -64t-61 -159z" />
<glyph unicode="&#xbb;" horiz-adv-x="891" d="M99 961h116l262 -460l-262 -461h-115l259 461zM424 961h116l262 -460l-262 -461h-115l259 461z" />
<glyph unicode="&#xbc;" horiz-adv-x="1573" d="M41 1281l253 174h83v-842h-104v708l-180 -122zM381 9l632 1461l96 -37l-631 -1460zM875 146v73l430 624h83v-600h131v-97h-131v-146h-104v146h-409zM1012 243h272v398z" />
<glyph unicode="&#xbd;" horiz-adv-x="1634" d="M41 1281l253 174h83v-842h-104v708l-180 -122zM381 9l632 1461l96 -37l-631 -1460zM993 74l311 289q69 63 106 120q36 55 36 114q0 65 -50 110t-126 45q-29 0 -54 -7q-28 -8 -53 -21q-26 -14 -48 -37q-24 -25 -38 -54l-81 58q38 72 113 116q76 44 167 44q74 0 135 -30 q63 -31 101 -91q39 -62 39 -141q0 -132 -157 -277l-229 -211v-4l395 -1v-97h-566z" />
<glyph unicode="&#xbe;" horiz-adv-x="1731" d="M43 770l95 43q51 -114 207 -114q88 0 140 41q51 40 51 113q0 61 -55 103t-148 42h-76v95h89q76 0 122 38q45 37 45 93q0 64 -47 102t-126 38q-122 0 -178 -90l-88 53q36 61 105 99q68 37 163 37q119 0 197 -60t78 -163q0 -64 -31 -113q-32 -49 -90 -78v-4q70 -29 108 -82 q39 -54 39 -126l-2 -2q0 -105 -80 -170t-210 -65q-111 0 -193 47q-80 46 -115 123zM539 9l632 1461l96 -37l-631 -1460zM1031 144v73l430 624h83v-600h131v-97h-131v-146h-104v146h-409zM1168 241h272v398z" />
<glyph unicode="&#xbf;" horiz-adv-x="850" d="M85 -155q0 49 11 98q10 44 26 81q16 36 42 74q27 39 50 65q22 25 57 63l37 37l38 38q12 12 33 36q23 26 32 42q13 23 23 41q12 22 18 47q6 24 6 49l1 78h97l-3 -118q0 -28 -8 -60q-7 -30 -18 -51t-33 -51q-27 -36 -37 -48q-5 -6 -47 -52q-32 -34 -48 -54q-14 -17 -34 -39 q-18 -20 -36 -41q-14 -17 -29 -37q-20 -28 -27 -43q-8 -16 -18 -42q-11 -26 -15 -52q-4 -24 -4 -57q0 -127 78 -198q79 -71 200 -71q51 0 105 17q52 17 99 51q47 35 80 84l83 -72q-66 -93 -162 -141t-211 -48q-108 0 -195 45q-86 44 -139 131q-52 85 -52 198zM412 915 q0 37 27 63q28 26 65 26l-1 -1q40 0 66 -25q27 -26 27 -63q0 -39 -27 -65q-28 -26 -66 -26q-36 0 -64 26q-27 26 -27 65z" />
<glyph unicode="&#xc0;" horiz-adv-x="1365" d="M63 0l557 1455h122l562 -1455h-124l-146 385h-703l-145 -385h-123zM362 1913h136l246 -283h-127zM372 495h621l-311 820h-2z" />
<glyph unicode="&#xc1;" horiz-adv-x="1365" d="M63 0l557 1455h122l562 -1455h-124l-146 385h-703l-145 -385h-123zM372 495h621l-311 820h-2zM645 1630l245 283h136l-254 -283h-127z" />
<glyph unicode="&#xc2;" horiz-adv-x="1365" d="M63 0l557 1455h122l562 -1455h-124l-146 385h-703l-145 -385h-123zM372 495h621l-311 820h-2zM381 1627l244 286h105l250 -286h-126l-171 198h-6l-171 -198h-125z" />
<glyph unicode="&#xc3;" horiz-adv-x="1365" d="M61 1l557 1455h122l562 -1455h-124l-146 385h-703l-145 -385h-123zM329 1698q58 181 192 181q33 0 63 -10q33 -11 50 -21q27 -16 50 -30q11 -7 23 -15q4 -3 8.5 -6l9 -6t6.5 -4q11 -7 23 -14l24 -12q7 -3 23 -7q12 -3 24 -3q37 0 69 30q31 30 51 89l76 -26 q-16 -62 -45 -106q-28 -43 -64 -64t-76 -21q-9 0 -27 2q-11 1 -24 5q-11 3 -24 9t-21 9q-9 4 -23 12q-4 2 -8.5 5t-7.5 4.5t-4 2.5q-1 0 -4 2.5t-7.5 5.5t-9.5 6l-19 13q-76 52 -123 52l-2 1q-85 0 -126 -119zM370 496h621l-311 820h-2z" />
<glyph unicode="&#xc4;" horiz-adv-x="1365" d="M61 -3l557 1455h122l562 -1455h-124l-146 385h-703l-145 -385h-123zM370 492h621l-311 820h-2zM420 1781q0 37 26 63t66 26q39 0 65 -26t26 -63t-26 -63q-25 -25 -65 -25l-1 -1q-39 0 -65 26t-26 63zM757 1780q0 38 27 63q28 26 64 26q37 0 63 -26t26 -63q0 -36 -25 -61 t-63 -25l-1 -2q-36 0 -64 26q-27 26 -27 62z" />
<glyph unicode="&#xc5;" horiz-adv-x="1365" d="M62 -3l557 1455h122l562 -1455h-124l-146 385h-703l-145 -385h-123zM371 492h621l-311 820h-2zM493 1775q0 75 54 129t132 54q76 0 132 -53q55 -52 55 -129q0 -49 -24 -91t-67 -66q-44 -24 -94 -24l-1 -3q-76 0 -132 54q-55 54 -55 129zM587 1776q0 -38 27 -65t66 -27 q38 0 66 27t28 65t-28 65t-66 27q-39 0 -66 -27t-27 -65z" />
<glyph unicode="&#xc6;" horiz-adv-x="1905" d="M18 0l812 1455h933v-110h-756v-565h635v-110h-635v-560h797v-110h-911v385h-532l-215 -385h-128zM422 495h471v839h-2z" />
<glyph unicode="&#xc7;" horiz-adv-x="1483" d="M124 718q0 124 30 237q30 112 90 205q61 95 145 161q85 67 201 105q117 38 252 38q104 0 200 -27q97 -27 191 -90q94 -62 171 -158l-89 -73q-92 114 -215 175q-122 60 -255 60q-139 0 -252 -48q-112 -48 -187 -132q-74 -83 -115 -199q-40 -114 -40 -250q0 -143 46 -259 q47 -117 126 -195t188 -120q108 -42 233 -42l-1 -8q280 0 471 233l89 -73q-219 -274 -560 -274h-6l-28 -59l2 -3q74 -5 123 -46q50 -42 50 -113q0 -65 -51 -108q-50 -43 -147 -43q-57 0 -108 13v69q48 -14 96 -14q33 0 60 9t45 30t18 50q0 41 -45 71t-126 30l2 52l29 64v4 q-134 14 -247 67q-114 54 -201 144q-86 89 -136 223q-49 132 -49 294z" />
<glyph unicode="&#xc8;" d="M188 0v1455h868v-110h-753v-565h626v-110h-626v-560h796v-110h-911zM434 1914h136l246 -283h-127z" />
<glyph unicode="&#xc9;" d="M188 0v1455h868v-110h-753v-565h626v-110h-626v-560h796v-110h-911zM466 1631l245 283h136l-254 -283h-127z" />
<glyph unicode="&#xca;" d="M188 0v1455h868v-110h-753v-565h626v-110h-626v-560h796v-110h-911zM328 1628l244 286h105l250 -286h-126l-171 198h-6l-171 -198h-125z" />
<glyph unicode="&#xcb;" d="M187 -3v1455h868v-110h-753v-565h626v-110h-626v-560h796v-110h-911zM368 1782q0 37 26 63t65 26t65 -26t26 -63t-26 -63q-25 -25 -65 -25v-1q-39 0 -65 26t-26 63zM705 1781q0 37 27 63q28 26 64 26q37 0 63 -26t26 -63q0 -36 -25 -61t-63 -25l-1 -2q-36 0 -64 26 q-27 25 -27 62z" />
<glyph unicode="&#xcc;" horiz-adv-x="520" d="M-63 1913h136l246 -283h-127zM200 0v1455h116v-1455h-116z" />
<glyph unicode="&#xcd;" horiz-adv-x="517" d="M200 0v1455h116v-1455h-116zM208 1630l245 283h136l-254 -283h-127z" />
<glyph unicode="&#xce;" horiz-adv-x="517" d="M-44 1628l244 286h105l250 -286h-126l-171 198h-6l-171 -198h-125zM200 0v1455h116v-1455h-116z" />
<glyph unicode="&#xcf;" horiz-adv-x="517" d="M-4 1782q0 37 26 63t65 26t65 -26t26 -63t-26 -63q-25 -25 -65 -25v-1q-39 0 -65 26t-26 63zM199 -3v1455h116v-1455h-116zM333 1781q0 37 27 63q28 26 64 26q37 0 63 -26t26 -63q0 -36 -25 -61t-63 -25l-1 -2q-36 0 -64 26q-27 25 -27 62z" />
<glyph unicode="&#xd0;" horiz-adv-x="1479" d="M71 703v108h117v644h409l-2 -1q169 0 312 -54t240 -150q97 -95 151 -231q54 -135 54 -295q0 -161 -52 -295q-52 -135 -148 -229t-237 -147q-142 -53 -312 -53h-415v703h-117zM301 109h293l-1 -2q143 0 260 46q119 47 201 127q83 82 128 195q45 114 45 248q0 137 -46 251 q-47 117 -127 197t-199 127q-117 46 -258 46h-296v-534h368v-108h-368v-593z" />
<glyph unicode="&#xd1;" horiz-adv-x="1528" d="M187 1v1455h113l919 -1257h4v1257h115v-1455h-117l-916 1251h-3v-1251h-115zM410 1698q58 181 192 181q33 0 63 -10q33 -11 50 -21q27 -16 50 -30q7 -4 27 -18q15 -11 30 -19q10 -6 27 -15t30 -12t27 -3q38 0 69 30t51 89l76 -26q-25 -92 -75 -142q-49 -49 -111 -49 q-9 0 -27 2q-11 1 -24 5q-11 3 -24 9t-21 9q-9 4 -23 12q-4 2 -8.5 5t-7.5 4.5t-4 2.5l-21 14l-19 13q-76 52 -123 52l-1 1q-85 0 -126 -119z" />
<glyph unicode="&#xd2;" horiz-adv-x="1697" d="M127 729q0 152 53 288q52 134 146 234q93 99 230 156q136 57 294 57q149 0 281 -54t229 -148t153 -233t56 -300q0 -162 -56 -303q-55 -140 -153 -234q-97 -94 -229 -148t-281 -54h-2q-158 0 -294 57t-229 156q-94 100 -146 235t-52 291zM248 729q0 -103 27 -198 q26 -92 80 -172q52 -77 125 -135t167 -89q93 -31 201 -31l-4 -1q125 0 233 46q109 46 190 127q82 82 128 198q47 118 47 254q0 135 -47 253t-127 198q-81 81 -190 126t-232 45q-134 0 -245 -49q-113 -50 -189 -133q-76 -84 -120 -198q-44 -115 -44 -241zM541 1913h136 l246 -283h-127z" />
<glyph unicode="&#xd3;" horiz-adv-x="1697" d="M127 729q0 152 53 288q52 134 146 234q93 99 230 156q136 57 294 57q149 0 281 -54t229 -148t153 -233t56 -300q0 -162 -56 -303q-55 -140 -153 -234q-97 -94 -229 -148t-281 -54h-2q-158 0 -294 57t-229 156q-94 100 -146 235t-52 291zM248 729q0 -103 27 -198 q26 -92 80 -172q52 -77 125 -135t167 -89q93 -31 201 -31l-4 -1q125 0 233 46q109 46 190 127q82 82 128 198q47 118 47 254q0 135 -47 253t-127 198q-81 81 -190 126t-232 45q-134 0 -245 -49q-113 -50 -189 -133q-76 -84 -120 -198q-44 -115 -44 -241zM806 1630l245 283 h136l-254 -283h-127z" />
<glyph unicode="&#xd4;" horiz-adv-x="1697" d="M127 730q0 152 53 288q52 134 146 234q93 99 230 156q136 57 294 57h-2q149 0 281 -54t229 -148t153 -233t56 -300q0 -162 -56 -303q-55 -139 -153 -234q-97 -94 -229 -148t-281 -54q-158 0 -294 57t-229 156q-94 100 -146 235t-52 291zM248 729q0 -103 27 -198 q26 -92 80 -172q52 -77 125 -135t167 -89q93 -31 201 -31l-4 -1q125 0 233 46q109 46 190 127q82 82 128 198q47 118 47 254q0 135 -47 253t-127 198q-81 81 -190 126t-232 45q-134 0 -245 -49q-113 -50 -189 -133q-76 -84 -120 -198q-44 -115 -44 -241zM550 1627l244 286 h105l250 -286h-126l-171 198h-6l-171 -198h-125z" />
<glyph unicode="&#xd5;" horiz-adv-x="1697" d="M122 728q0 152 53 288q52 134 146 234q93 99 230 156t294 57q149 0 281 -54t229 -148t153 -233t56 -300q0 -162 -56 -303q-56 -139 -153 -234q-97 -94 -229 -148t-281 -54h-2q-157 0 -294 57q-136 57 -229 156q-94 100 -146 235t-52 291zM243 728q0 -104 27 -198 q26 -92 80 -172q52 -77 125 -135t167 -89q93 -31 201 -31l-4 -1q125 0 233 46q109 46 190 127q82 82 128 198q47 118 47 254q0 135 -47 253t-127 198q-81 81 -190 126q-110 45 -232 45q-134 0 -245 -49q-113 -50 -189 -133q-77 -84 -120 -198q-44 -115 -44 -241zM497 1696 q58 181 192 181q33 0 63 -10q33 -11 50 -21q27 -16 50 -30q8 -4 27 -18q15 -11 30 -19q11 -6 27 -15t30 -12t27 -3q26 0 48 13q23 14 42 40q19 27 33 66l76 -26q-25 -92 -75 -142q-49 -49 -111 -49l-5 -1q-7 0 -21 2q-7 1 -19 3q-4 1 -19 5q-10 3 -18 6t-18 9t-18 9 q-6 2 -18 11q-14 10 -16 11t-16 11q-3 2 -8 6t-7 5q-76 52 -123 52q-85 0 -126 -119z" />
<glyph unicode="&#xd6;" horiz-adv-x="1697" d="M125 724q0 152 53 288q52 134 146 234q93 99 230 156q136 57 294 57q149 0 281 -54t229 -148t153 -233t56 -300q0 -162 -56 -303q-55 -139 -153 -234q-97 -94 -229 -148t-281 -54h-2q-158 0 -294 57t-229 156q-94 100 -146 235t-52 291zM246 724q0 -104 27 -198 q26 -92 80 -172q52 -77 125 -135t167 -89q93 -31 201 -31l-4 -1q125 0 233 46q109 46 190 127q82 82 128 198q47 118 47 254q0 135 -47 253t-127 198q-81 81 -190 126q-110 45 -232 45q-134 0 -245 -49q-113 -50 -189 -133q-76 -84 -120 -198q-44 -115 -44 -241zM589 1779 q0 25 12 46t33 33t47 12q39 0 65 -26t26 -63t-26 -63q-25 -25 -65 -25l-1 -3q-39 0 -65 26t-26 63zM926 1778q0 38 27 63q28 26 64 26q37 0 63 -26t26 -63q0 -36 -25 -61t-63 -25l-1 -2q-36 0 -64 26q-27 26 -27 62z" />
<glyph unicode="&#xd7;" horiz-adv-x="1031" d="M122 248l318 318l-318 317l74 76l317 -318l319 319l76 -75l-319 -320l318 -318l-75 -72l-318 316l-317 -317z" />
<glyph unicode="&#xd8;" horiz-adv-x="1706" d="M127 731q0 152 53 288q52 134 146 234q93 99 230 156q136 57 294 57q68 0 134 -12q69 -12 126 -34q60 -22 114 -54t102 -72l172 185l80 -72l-176 -188q80 -96 123 -220q44 -126 44 -268q0 -162 -56 -303q-55 -140 -153 -234q-97 -94 -229 -148t-281 -54q-262 0 -450 148 l-169 -181l-83 76l169 182q-92 101 -141 232t-49 282zM248 728q0 -122 39 -231q39 -110 112 -193l842 902q-79 70 -180 108q-102 38 -213 38q-134 0 -245 -49q-113 -50 -189 -133q-76 -84 -120 -198q-44 -115 -44 -241zM478 225q160 -122 369 -122q125 0 233 46 q110 46 190 127q82 82 128 198q47 118 47 254h-1q0 231 -129 398z" />
<glyph unicode="&#xd9;" horiz-adv-x="1435" d="M167 587v869h115v-860q0 -149 54 -260t152 -171t227 -60q196 0 316 132t120 360v860h115v-869q0 -136 -39 -249t-111 -189q-71 -76 -174 -118q-102 -42 -225 -42l-3 1q-120 0 -222 41q-101 41 -173 116q-71 74 -112 188q-40 111 -40 251zM460 1913h136l246 -283h-127z " />
<glyph unicode="&#xda;" horiz-adv-x="1435" d="M167 587v869h115v-860q0 -149 54 -260t152 -171t227 -60q196 0 316 132t120 360v860h115v-869q0 -136 -39 -249t-111 -189q-71 -76 -174 -118q-102 -42 -225 -42l-3 1q-120 0 -222 41q-101 41 -173 116q-71 74 -112 188q-40 111 -40 251zM618 1630l245 283h136l-254 -283 h-127z" />
<glyph unicode="&#xdb;" horiz-adv-x="1435" d="M168 585v869h115v-860q0 -149 54 -260t152 -171q97 -60 227 -60q196 0 316 132t120 360v860l112 1v-869q0 -137 -39 -249t-111 -189q-71 -76 -174 -118q-102 -42 -225 -42q-120 0 -222 41q-101 41 -173 116q-71 74 -112 188q-40 111 -40 251zM419 1627l244 286h105 l250 -286h-126l-171 198h-6l-171 -198h-125z" />
<glyph unicode="&#xdc;" horiz-adv-x="1435" d="M165 582v869h115v-860q0 -149 54 -260t152 -171t227 -60q196 0 316 132t120 360v860h115v-869q0 -137 -39 -249t-111 -189q-71 -76 -174 -118q-102 -42 -225 -42l-3 1q-120 0 -222 41q-101 41 -173 116q-71 74 -112 188q-40 111 -40 251zM458 1779q0 39 26 65t66 26 q39 0 65 -26t26 -63t-26 -63q-25 -25 -65 -25l-1 -3q-39 0 -65 26t-26 63zM795 1778q0 38 27 63q28 26 64 26q37 0 63 -26t26 -63q0 -36 -25 -61t-63 -25l-1 -2q-36 0 -64 26q-27 26 -27 62z" />
<glyph unicode="&#xdd;" d="M40 1455h135l419 -675h8l421 675h136l-504 -799v-656h-115v656zM536 1630l245 283h136l-254 -283h-127z" />
<glyph unicode="&#xde;" horiz-adv-x="1275" d="M185 1455h115v-305h416q98 0 176 -21q77 -21 132 -59q53 -37 90 -92q35 -53 52 -118q17 -66 17 -141q0 -109 -36 -193t-103 -136q-68 -53 -157 -78q-92 -26 -203 -26h-381v-286h-115zM300 396l382 1q99 0 173 24q73 24 117 69q44 46 65 102q21 57 21 128q0 158 -91 239 t-253 81h-414v-644z" />
<glyph unicode="&#xdf;" horiz-adv-x="1245" d="M165 -3v1021q0 126 33 222q33 97 94 156q62 60 145 90q84 30 190 30q205 0 321 -93t116 -253q0 -35 -9 -71q-10 -39 -28 -77q-20 -41 -60 -77q-42 -37 -96 -59v-3l-8 -5q67 -27 123 -72q57 -46 92 -102q37 -58 56 -123q20 -68 20 -135q0 -138 -60 -243 q-61 -106 -163 -161q-103 -55 -234 -55h-231v102h200q168 0 274 98q105 97 105 258q0 71 -26 138q-25 66 -74 119q-48 52 -126 84q-79 32 -175 32h-115v102h119q73 1 132 20q57 18 89 44q31 26 51 60q21 36 26 61q6 27 6 54q0 77 -37 133q-38 58 -111 89q-75 32 -177 32 q-65 0 -119 -15q-55 -15 -98 -45q-44 -31 -74 -75q-31 -46 -47 -110q-16 -63 -16 -144v-1027h-108z" />
<glyph unicode="&#xe0;" horiz-adv-x="1225" d="M98 489q0 145 61 261q62 117 172 186q111 69 250 69q117 0 216 -54q100 -55 161 -151h4v195l109 -2v-995h-103v191h-3q-60 -95 -157 -147q-98 -53 -222 -53q-100 0 -189 36q-90 37 -155 100q-66 65 -105 159q-39 95 -39 205zM208 485q0 -111 48 -201t136 -142t201 -52 l1 -4q74 0 143 29q68 29 119 80t81 126t30 162q0 115 -48 209q-48 95 -133 150q-86 56 -192 56q-80 0 -150 -30q-71 -30 -123 -82q-53 -53 -83 -131t-30 -170zM358 1426h136l246 -283h-127z" />
<glyph unicode="&#xe1;" horiz-adv-x="1225" d="M98 489q0 145 61 261q62 117 172 186q111 69 250 69q117 0 216 -54q100 -55 161 -151h4v195l110 -2v-995h-103v191h-3q-28 -45 -68 -84q-39 -37 -87 -63t-105 -39q-59 -14 -120 -14q-100 0 -189 36q-90 37 -155 100q-66 65 -105 159q-39 95 -39 205zM209 485 q0 -111 48 -201t136 -142t201 -52l1 -4q74 0 143 29q68 29 119 80t81 126t30 162q0 115 -48 209q-48 95 -133 150q-86 56 -192 56q-79 0 -150 -30t-123 -82q-53 -53 -83 -131t-30 -170zM558 1143l245 283h136l-254 -283h-127z" />
<glyph unicode="&#xe2;" horiz-adv-x="1225" d="M98 489q0 145 61 261q62 117 172 186q111 69 250 69q117 0 216 -54q100 -55 161 -151h4v195l109 -2v-995h-103v191h-3q-60 -95 -157 -147q-98 -53 -222 -53q-100 0 -189 36q-90 37 -155 100q-66 65 -105 159q-39 95 -39 205zM208 485q0 -111 48 -201t136 -142t201 -52 l1 -4q74 0 143 29q68 29 119 80t81 126t30 162q0 115 -48 209q-48 95 -133 150q-86 56 -192 56q-80 0 -150 -30q-71 -30 -123 -82q-53 -53 -83 -131t-30 -170zM296 1140l244 286h105l250 -286h-126l-171 198h-6l-171 -198h-125z" />
<glyph unicode="&#xe3;" horiz-adv-x="1225" d="M94 485q0 145 61 261q62 117 172 186q111 69 250 69q117 0 216 -54q100 -55 161 -151h4v195l109 -2v-995h-103v191h-3q-60 -95 -157 -147q-98 -53 -222 -53q-100 0 -189 36q-90 37 -155 100q-66 65 -105 159t-39 205zM204 481q0 -111 48 -201t136 -142t201 -52l1 -4 q74 0 143 29q68 29 119 80t81 126t30 162q0 115 -48 209q-48 95 -133 150q-86 56 -192 56q-80 0 -150 -30q-71 -30 -123 -82q-53 -53 -83 -131t-30 -170zM242 1206q58 181 192 181q33 0 63 -10q33 -11 50 -21q27 -16 50 -30q11 -7 23 -15l24 -16q11 -7 23 -14q13 -7 24 -12 q7 -3 23 -7q12 -3 24 -3q38 0 69 30t51 89l76 -26q-25 -92 -75 -142q-49 -49 -111 -49q-7 0 -21 2q-5 1 -22 5q-12 3 -21 6t-21 9q-14 7 -19 10q-3 2 -9.5 6t-9.5 6q-12 7 -18 12q-2 1 -8 5.5l-10 7.5q-8 6 -17 12q-76 52 -123 52l-4 -4q-85 0 -126 -119z" />
<glyph unicode="&#xe4;" horiz-adv-x="1225" d="M96 485q0 145 61 261q62 117 172 186q111 69 250 69q117 0 216 -54q100 -55 161 -151h4v195l109 -2v-995h-103v191h-3q-60 -95 -157 -147q-98 -53 -222 -53q-100 0 -189 36q-90 37 -155 100q-66 65 -105 159t-39 205zM206 481q0 -111 48 -201t136 -142t201 -52l1 -4 q74 0 143 29q68 29 119 80t81 126t30 162q0 115 -48 209q-48 95 -133 150q-86 56 -192 56q-80 0 -150 -30q-71 -30 -123 -82q-53 -53 -83 -131t-30 -170zM335 1294q0 37 26 63t66 26q39 0 65 -26t26 -63t-26 -63q-25 -25 -65 -25l-1 -1q-39 0 -65 26t-26 63zM672 1292 q0 24 12 45t33 33t46 12q37 0 63 -26t26 -63q0 -36 -25 -61t-63 -25l-1 -3q-36 0 -64 26q-27 26 -27 62z" />
<glyph unicode="&#xe5;" horiz-adv-x="1225" d="M96 487q0 145 61 261q62 117 172 186q111 69 250 69q117 0 216 -54q100 -55 161 -151h4v195l109 -2v-995h-103v191h-3q-60 -95 -157 -147q-98 -53 -222 -53q-100 0 -189 36q-90 37 -155 100q-66 65 -105 159t-39 205zM206 483q0 -111 48 -201t136 -142t201 -52l1 -4 q74 0 143 29q68 29 119 80t81 126t30 162q0 115 -48 209q-48 95 -133 150q-86 56 -192 56q-80 0 -150 -30q-71 -30 -123 -82q-53 -53 -83 -131t-30 -170zM409 1290q0 75 54 129t132 54q76 0 132 -53q55 -52 55 -129q0 -75 -54 -129t-132 -54v-1q-76 0 -132 54 q-55 54 -55 129zM501 1290q0 -18 8 -36q8 -16 20 -29q11 -11 30 -19q17 -7 37 -7q38 0 66 27t28 65t-28 65t-66 27l-2 -1q-39 0 -66 -27t-27 -65z" />
<glyph unicode="&#xe6;" horiz-adv-x="1634" d="M77 281q0 131 90 210q89 79 263 79l285 1v33q0 112 -21 177t-66 93q-46 29 -122 29q-146 0 -301 -82l-44 89q75 43 170 69q96 26 182 26q121 0 190 -54q70 -55 95 -166h3q37 67 90 117q51 48 122 76q69 27 147 27q116 0 207 -63t144 -174q52 -110 52 -250l-5 -1 q0 -18 -3 -48h-737q7 -164 101 -271q93 -106 231 -106q85 0 158 40q74 41 129 109l77 -65q-67 -87 -160 -136q-92 -49 -205 -49q-119 0 -216 66t-148 180h-2q-36 -112 -139 -179q-104 -68 -243 -68q-79 0 -143 23q-63 23 -102 63q-40 41 -59 93q-20 54 -20 112zM184 282 q0 -80 58 -135q59 -56 165 -56q83 0 152 33t111 99t42 151q0 16 1 21v74l-276 -1q-109 0 -181 -48t-72 -138zM822 569h628q-18 150 -100 241t-201 91q-128 0 -218 -92q-89 -91 -109 -240z" />
<glyph unicode="&#xe7;" horiz-adv-x="1059" d="M101 495q0 148 62 264q61 115 173 180t254 65q111 0 213 -43q104 -44 174 -124l-77 -69q-53 62 -132 98q-80 36 -174 36q-112 0 -199 -51t-135 -144t-48 -210q0 -119 48 -210q48 -92 135 -143t199 -51q92 0 176 35q83 35 137 96l74 -71q-63 -69 -163 -114 q-99 -44 -216 -49l-24 -61l2 -3q74 -5 123 -46q50 -42 50 -113q0 -65 -51 -108q-50 -43 -147 -43q-57 0 -108 13v69q48 -14 96 -14q33 0 60 9t45 30t18 50q0 41 -45 71t-126 30l2 52l28 62v3q-190 21 -307 159t-117 345z" />
<glyph unicode="&#xe8;" horiz-adv-x="1112" d="M99 498q0 110 36 204q36 95 99 161q64 67 148 104q87 38 183 38q133 0 237 -63t159 -172t55 -246l2 -1q0 -44 -3 -53h-801q7 -169 111 -274q103 -105 260 -105q98 0 177 40q80 41 135 111l77 -66q-65 -86 -165 -136q-98 -49 -225 -49q-103 0 -192 37q-90 37 -154 103 t-102 161q-37 93 -37 206zM216 571h692q-16 150 -105 240t-225 90h-1q-137 0 -238 -90t-123 -240zM324 1426h136l246 -283h-127z" />
<glyph unicode="&#xe9;" horiz-adv-x="1112" d="M99 498q0 110 36 204q36 95 99 161q64 67 148 104q87 38 183 38q133 0 237 -63t159 -172t55 -246l2 -1q0 -44 -3 -53h-801q7 -169 111 -274q103 -105 260 -105q98 0 177 40q80 41 135 111l77 -66q-65 -86 -165 -136q-98 -49 -225 -49q-103 0 -192 37q-90 37 -154 103 t-102 161q-37 93 -37 206zM216 571h692q-16 150 -105 240t-225 90h-2q-92 0 -168 -40q-75 -40 -127 -116t-65 -174zM501 1143l245 283h136l-254 -283h-127z" />
<glyph unicode="&#xea;" horiz-adv-x="1112" d="M99 498q0 110 36 204q36 95 99 161q64 67 148 104q87 38 183 38q133 0 237 -63t159 -172t55 -246l2 -1q0 -44 -3 -53h-801q7 -169 111 -274q103 -105 260 -105q98 0 177 40q80 41 135 111l77 -66q-65 -86 -165 -136q-98 -49 -225 -49q-103 0 -192 37q-90 37 -154 103 t-102 161q-37 93 -37 206zM218 569h692q-11 98 -54 173q-44 75 -115 117q-72 42 -163 42v-2q-92 0 -168 -40q-75 -40 -127 -116t-65 -174zM283 1140l244 286h105l250 -286h-126l-171 198h-6l-171 -198h-125z" />
<glyph unicode="&#xeb;" horiz-adv-x="1112" d="M96 497q0 109 36 204t99 161q64 67 148 104q87 38 183 38q134 0 237 -63q104 -63 159 -172t55 -246l2 -1q0 -44 -3 -53h-801q7 -169 111 -274t260 -105q98 0 177 40t135 111l77 -66q-65 -86 -165 -136q-98 -49 -225 -49q-103 0 -192 37q-90 37 -154 103t-102 161 q-37 93 -37 206zM215 568h692q-11 98 -54 173q-44 75 -115 117q-72 42 -163 42v-2q-92 0 -168 -40q-75 -40 -127 -116t-65 -174zM321 1296q0 37 26 63t66 26q26 0 47 -12t33 -33t12 -46q0 -37 -26 -63q-25 -25 -65 -25l-2 1q-39 0 -65 26t-26 63zM658 1295q0 37 27 63 q28 26 64 26q37 0 63 -26t26 -63q0 -36 -25 -61t-63 -25l-1 -2q-36 0 -64 26q-27 25 -27 62z" />
<glyph unicode="&#xec;" horiz-adv-x="467" d="M-21 1426h127l181 -283h-118zM179 0v995h108v-995h-108z" />
<glyph unicode="&#xed;" horiz-adv-x="467" d="M179 0v995h108v-995h-108zM190 1143l245 283h136l-254 -283h-127z" />
<glyph unicode="&#xee;" horiz-adv-x="467" d="M-66 1140l244 286h105l250 -286h-126l-171 198h-6l-171 -198h-125zM179 0v995h108v-995h-108z" />
<glyph unicode="&#xef;" horiz-adv-x="467" d="M-27 1294q0 37 26 63t66 26q39 0 65 -26t26 -63t-26 -63q-25 -25 -65 -25l-1 -1q-39 0 -65 26t-26 63zM177 -3v995h108v-995h-108zM310 1293q0 37 27 63q28 26 64 26q37 0 63 -26t26 -63q0 -36 -25 -61t-63 -25l-1 -2q-36 0 -64 26q-27 25 -27 62z" />
<glyph unicode="&#xf0;" horiz-adv-x="1210" d="M104 492q0 147 63 264t176 183t255 66q210 0 350 -150l2 2q-109 267 -356 432l-166 -129l-62 71l141 111q-91 50 -198 84l55 90q118 -40 228 -108l145 114l61 -75l-122 -95q200 -149 315 -367q116 -220 116 -477v-1q0 -108 -37 -201q-37 -94 -102 -163q-64 -68 -159 -109 q-93 -40 -205 -40q-105 0 -195 37q-91 37 -159 102t-107 158t-39 201zM212 497q0 -114 53 -208q52 -92 141 -142t198 -50v-3q114 0 204 54q91 55 140 145q49 91 49 203q0 90 -31 165q-32 77 -84 129q-53 53 -125 83t-154 30q-113 0 -203 -54q-89 -54 -139 -147 q-49 -92 -49 -205z" />
<glyph unicode="&#xf1;" horiz-adv-x="1146" d="M161 -4v995h108v-194h4q62 96 164 151q101 54 222 54l1 -1q158 0 246 -100q89 -101 89 -315v-590h-108v576q0 79 -13 134q-14 57 -36 93q-23 37 -55 59q-34 23 -69 32q-36 9 -80 9q-165 0 -265 -112t-100 -298v-493h-108zM228 1207q58 181 192 181q33 0 63 -10 q33 -11 50 -21q27 -16 50 -30q7 -5 27 -18q15 -11 30 -19q10 -6 27 -15t30 -12t27 -3q26 0 48 13q23 14 42 40q20 27 33 66l76 -26q-25 -92 -75 -142q-49 -49 -111 -49q-29 0 -60 12t-51 24q-22 13 -52 34l-6 4t-5.5 3.5t-3.5 2.5q-76 52 -123 52l-5 -3q-85 0 -126 -119z " />
<glyph unicode="&#xf2;" horiz-adv-x="1211" d="M100 494q0 105 36 198q36 92 101 162q63 68 161 109q95 40 208 40q142 0 258 -63q115 -63 181 -180t66 -265q0 -147 -66 -263q-67 -117 -181 -179q-116 -63 -258 -63l-1 -2q-113 0 -208 40t-160 108t-101 161t-36 197zM207 493q0 -112 49 -203q50 -92 141 -146t207 -54 l-4 -1q109 0 199 51q91 51 143 144q53 94 53 210q0 90 -31 165q-32 77 -84 129q-53 53 -125 83t-154 30q-116 0 -207 -55t-139 -148t-48 -205zM290 1426h136l246 -283h-127z" />
<glyph unicode="&#xf3;" horiz-adv-x="1211" d="M100 494q0 105 36 198q36 92 101 162q63 68 161 109q95 40 208 40q142 0 258 -63q115 -63 181 -180t66 -265q0 -147 -66 -263q-67 -117 -181 -179q-116 -63 -258 -63l-1 -2q-113 0 -208 40t-160 108t-101 161t-36 197zM207 493q0 -112 49 -203q50 -92 141 -146t207 -54 l-4 -1q109 0 199 51q91 51 143 144q53 94 53 210q0 90 -31 165q-32 77 -84 129q-53 53 -125 83t-154 30q-116 0 -207 -55t-139 -148t-48 -205zM540 1143l245 283h136l-254 -283h-127z" />
<glyph unicode="&#xf4;" horiz-adv-x="1211" d="M100 496q0 105 36 198q36 92 101 162q63 68 161 109q95 40 208 40l-1 -2q143 0 258 -63t181 -180t66 -265q0 -147 -66 -263q-67 -117 -181 -179q-115 -63 -258 -63q-113 0 -208 40t-160 108t-101 161t-36 197zM207 493q0 -112 49 -203q50 -92 141 -146t207 -54l-4 -1 q109 0 199 51q91 51 143 144q53 94 53 210q0 90 -31 165q-32 77 -84 129q-53 53 -125 83t-154 30q-116 0 -207 -55t-139 -148t-48 -205zM306 1140l244 286h105l250 -286h-126l-171 198h-6l-171 -198h-125z" />
<glyph unicode="&#xf5;" horiz-adv-x="1211" d="M99 495q0 105 36 198q36 92 101 162q63 68 161 109q95 40 208 40q143 0 258 -63t181 -180t66 -265t-66 -263q-67 -117 -181 -179q-115 -63 -258 -63l-1 -2q-113 0 -208 40t-160 108t-101 161t-36 197zM206 494q0 -112 49 -203q50 -92 141 -146q92 -54 207 -54l-4 -1 q109 0 199 51q91 51 143 144q53 94 53 210q0 90 -31 165q-31 76 -84 129t-125 83t-154 30q-116 0 -207 -55t-139 -148t-48 -205zM256 1209q58 181 192 181q33 0 63 -10q33 -11 50 -21q27 -16 50 -30q7 -5 27 -18q15 -11 30 -19q10 -6 27 -15t30 -12t27 -3q38 0 69 30t51 89 l76 -26q-25 -92 -75 -142q-49 -49 -111 -49l-1 1q-9 0 -27 2q-11 1 -24 5q-10 3 -24 9l-21 9q-9 4 -23 12q-4 2 -8.5 5t-7.5 4.5t-4 2.5q-1 0 -4 2.5t-7.5 5.5t-9.5 6l-19 13q-76 52 -123 52q-85 0 -126 -119z" />
<glyph unicode="&#xf6;" horiz-adv-x="1211" d="M98 491q0 105 36 198q36 92 101 162q63 68 161 109q95 40 208 40q142 0 258 -63q115 -63 181 -180t66 -265t-66 -263q-67 -117 -181 -179q-116 -63 -258 -63l-1 -2q-113 0 -208 40t-160 108t-101 161t-36 197zM205 490q0 -112 49 -203q50 -92 141 -146t207 -54l-4 -1 q109 0 199 51q91 51 143 144q53 94 53 210q0 90 -31 165q-32 76 -84 129q-53 53 -125 83t-154 30q-116 0 -207 -55t-139 -148t-48 -205zM345 1294q0 37 26 63t66 26q39 0 65 -26t26 -63t-26 -63q-25 -25 -65 -25l-1 -1q-39 0 -65 26t-26 63zM682 1293q0 37 27 63 q28 26 64 26q37 0 63 -26t26 -63q0 -36 -25 -61t-63 -25l-1 -2q-36 0 -64 26q-27 25 -27 62z" />
<glyph unicode="&#xf7;" d="M137 510v110h952v-110h-952zM504 958q0 39 27 66t67 27q39 0 66 -27t27 -66q0 -25 -12 -46t-33 -33t-47 -12l-1 -1q-40 0 -67 27t-27 65zM506 153q0 20 7 37t20 30q13 12 29 20q18 8 36 8q39 0 66 -27t27 -66q0 -37 -27 -64t-66 -27l2 -3q-40 0 -67 27t-27 65z" />
<glyph unicode="&#xf8;" horiz-adv-x="1218" d="M101 496q0 105 36 198q36 92 101 162q63 68 161 109q95 40 208 40q190 0 327 -113l122 129l71 -63l-124 -137q109 -133 109 -327q0 -148 -66 -263q-67 -117 -181 -179q-115 -63 -258 -63q-174 0 -304 93l-115 -121l-70 63l114 121q-62 68 -97 159q-34 89 -34 192z M211 493q0 -157 96 -270l554 588q-107 90 -255 90q-116 0 -207 -55t-139 -148t-48 -205h-1zM377 157q98 -70 229 -70q80 0 154 30t126 82q52 53 84 129q31 75 31 165v-2q0 141 -75 248z" />
<glyph unicode="&#xf9;" horiz-adv-x="1120" d="M144 398v596h108v-563q0 -93 18 -159t54 -105t84 -57t113 -18t127 30t108 82q48 54 74 130q27 78 27 169v492l106 1v-995h-108v184h-4q-62 -92 -153 -143q-92 -51 -192 -51q-114 0 -195 45q-80 44 -124 137q-43 90 -43 225zM313 1426h136l246 -283h-127z" />
<glyph unicode="&#xfa;" horiz-adv-x="1120" d="M144 398v596h108v-563q0 -93 18 -159t54 -105t84 -57t113 -18t127 30t108 82q48 54 74 130q27 78 27 169v492l106 -2v-995h-108v184h-4q-62 -92 -153 -143q-92 -51 -192 -51q-172 0 -267 105q-95 106 -95 305zM500 1143l245 283h136l-254 -283h-127z" />
<glyph unicode="&#xfb;" horiz-adv-x="1120" d="M144 398v596h108v-563q0 -93 18 -159t54 -105t84 -57t113 -18t127 30t108 82q48 54 74 130q27 78 27 169v492l106 1v-995h-108v184h-4q-62 -92 -153 -143q-92 -51 -192 -51q-114 0 -195 45q-80 44 -124 137q-43 90 -43 225zM244 1140l244 286h105l250 -286h-126l-171 198 h-6l-171 -198h-125z" />
<glyph unicode="&#xfc;" horiz-adv-x="1120" d="M142 395v596h108v-563q0 -93 18 -159t54 -105t84 -57t113 -18t127 30t108 82q48 54 74 130q27 78 27 169v492l106 -2v-995h-108v184h-4q-62 -92 -153 -143q-92 -51 -192 -51q-172 0 -267 105q-95 106 -95 305zM283 1294q0 37 26 63t66 26q39 0 65 -26t26 -63t-26 -63 q-25 -25 -65 -25l-1 -1q-39 0 -65 26t-26 63zM620 1293q0 37 27 63q28 26 64 26q37 0 63 -26t26 -63q0 -36 -25 -61t-63 -25l-1 -2q-25 0 -46 12t-33 32t-12 44z" />
<glyph unicode="&#xfd;" horiz-adv-x="1070" d="M57 995h118l369 -836h5l343 836h119l-579 -1400h-117l176 432zM436 1143l245 283h136l-254 -283h-127z" />
<glyph unicode="&#xfe;" horiz-adv-x="1241" d="M167 -404v1913h108v-710h4q62 98 161 152t216 54l3 2q139 0 250 -69q110 -69 172 -186q61 -116 61 -261q0 -111 -39 -205t-105 -159q-65 -63 -155 -100q-89 -36 -189 -36q-123 0 -219 51q-95 51 -156 143h-4v-589h-108zM275 490q0 -69 20 -132q20 -62 54 -110 q35 -49 81 -83q48 -35 102 -53q55 -18 116 -18l-1 -1q113 0 201 52q87 52 136 143q48 90 48 201q0 92 -30 170t-83 131t-123 83q-71 30 -148 30q-107 0 -192 -55t-133 -150q-48 -94 -48 -208z" />
<glyph unicode="&#xff;" horiz-adv-x="1070" d="M55 990h118l369 -836h5l343 836h119l-579 -1400h-117l176 432zM275 1292q0 25 12 46t33 33t47 12q39 0 65 -26t26 -63t-26 -63q-25 -25 -65 -25l-1 -3q-39 0 -65 26t-26 63zM612 1291q0 37 27 63q28 26 64 26q37 0 63 -26t26 -63q0 -36 -25 -61t-63 -25l-1 -2 q-36 0 -64 26q-27 25 -27 62z" />
<glyph unicode="&#x152;" horiz-adv-x="1946" d="M127 730q0 150 54 283q54 134 148 231q96 99 232 155q139 57 298 56h945v-110h-752v-566h631v-110h-631v-559l793 -2v-110h-986q-161 0 -298 58q-138 58 -232 157q-93 98 -148 233q-54 134 -54 284zM248 728q0 -134 48 -249q49 -117 130 -197q82 -80 195 -127 q111 -46 238 -46l78 -2v1234h-78q-124 1 -238 -44q-112 -45 -195 -125q-82 -79 -130 -195q-48 -115 -48 -249z" />
<glyph unicode="&#x153;" horiz-adv-x="1687" d="M79 498q0 142 54 259t152 183q97 66 218 66q111 0 204 -66q94 -67 146 -181h4q31 76 83 131q51 54 122 84q70 30 153 30q113 0 204 -63t144 -174q52 -110 52 -249l-3 1q0 -35 -3 -48l-696 1q1 -64 14 -124q12 -56 38 -104t60 -80q35 -33 84 -51t109 -18q82 0 155 41 t119 108l78 -65q-58 -85 -153 -136t-198 -51q-137 0 -228 65q-89 64 -136 176h-4q-52 -112 -146 -177q-92 -64 -208 -64q-125 0 -220 67q-96 67 -147 182q-51 114 -51 257zM186 496q0 -114 39 -206q39 -91 110 -144t161 -53l-4 -2q130 0 219 114q89 115 89 291q0 71 -15 134 q-15 62 -44 113q-28 48 -66 85q-36 35 -83 55q-44 19 -94 19q-87 0 -160 -53q-71 -52 -112 -146q-40 -92 -40 -207zM912 570h588q-16 150 -95 241q-78 90 -199 90h-1q-125 0 -202 -90q-76 -89 -91 -241z" />
<glyph unicode="&#x178;" d="M38 1450h135l419 -675h8l421 675h136l-504 -799v-656h-115v656zM341 1779q0 39 26 65t66 26q39 0 65 -26t26 -63t-26 -63q-25 -25 -65 -25l-1 -3q-39 0 -65 26t-26 63zM678 1778q0 38 27 63q28 26 64 26q37 0 63 -26t26 -63q0 -36 -25 -61t-63 -25l-1 -2q-25 0 -46 12 t-33 32t-12 44z" />
<glyph unicode="&#x2c6;" horiz-adv-x="1039" d="M220 1112l244 286h105l250 -286h-126l-171 198h-6l-171 -198h-125z" />
<glyph unicode="&#x2dc;" horiz-adv-x="1044" d="M172 1182q58 181 192 181q22 0 39 -4q19 -5 33 -9q15 -5 32 -15q7 -4 17 -9.5t12 -6.5q11 -6 30 -18q11 -7 23 -15q4 -3 8.5 -6l9 -6t6.5 -4q11 -7 23 -14q13 -8 24 -12q7 -3 23 -7q12 -3 24 -3q26 0 48 13q23 14 42 40q20 27 33 66l76 -26q-16 -62 -45 -106 q-28 -43 -64 -64t-76 -21l-5 2q-9 0 -27 2q-11 1 -24 5q-10 3 -24 9l-21 9q-9 4 -23 12q-4 2 -8.5 5t-7.5 4.5t-4 2.5q-1 0 -4 2.5t-7.5 5.5t-9.5 6l-19 13q-76 52 -123 52q-85 0 -126 -119z" />
<glyph unicode="&#x2000;" horiz-adv-x="979" />
<glyph unicode="&#x2001;" horiz-adv-x="1958" />
<glyph unicode="&#x2002;" horiz-adv-x="979" />
<glyph unicode="&#x2003;" horiz-adv-x="1958" />
<glyph unicode="&#x2004;" horiz-adv-x="652" />
<glyph unicode="&#x2005;" horiz-adv-x="489" />
<glyph unicode="&#x2006;" horiz-adv-x="326" />
<glyph unicode="&#x2007;" horiz-adv-x="326" />
<glyph unicode="&#x2008;" horiz-adv-x="244" />
<glyph unicode="&#x2009;" horiz-adv-x="391" />
<glyph unicode="&#x200a;" horiz-adv-x="108" />
<glyph unicode="&#x2010;" horiz-adv-x="850" d="M125 578v110h600v-110h-600z" />
<glyph unicode="&#x2011;" horiz-adv-x="850" d="M125 578v110h600v-110h-600z" />
<glyph unicode="&#x2012;" horiz-adv-x="850" d="M125 578v110h600v-110h-600z" />
<glyph unicode="&#x2013;" horiz-adv-x="1206" d="M125 556v104h956v-104h-956z" />
<glyph unicode="&#x2014;" horiz-adv-x="2162" d="M125 556v104h1912v-104h-1912z" />
<glyph unicode="&#x2018;" horiz-adv-x="377" d="M93 981l99 471h98l-70 -471h-127z" />
<glyph unicode="&#x2019;" horiz-adv-x="377" d="M87 984l70 471h127l-99 -471h-98z" />
<glyph unicode="&#x201a;" horiz-adv-x="406" d="M73 -265l70 471h128l-114 -471h-84z" />
<glyph unicode="&#x201c;" horiz-adv-x="615" d="M93 982l98 471h99l-68 -471h-129zM331 982l99 471h98l-70 -471h-127z" />
<glyph unicode="&#x201d;" horiz-adv-x="615" d="M87 984l70 471h127l-99 -471h-98zM325 984l68 471h129l-98 -471h-99z" />
<glyph unicode="&#x201e;" horiz-adv-x="643" d="M73 -153l70 471h127l-99 -471h-98zM311 -153l68 471h129l-98 -471h-99z" />
<glyph unicode="&#x2022;" horiz-adv-x="828" d="M218 646q0 80 57 135q58 56 137 56q54 0 98 -25q45 -26 72 -69t27 -96q0 -52 -27 -97q-27 -44 -72 -70q-44 -25 -97 -25l-2 -2q-81 0 -137 56t-56 137z" />
<glyph unicode="&#x2026;" horiz-adv-x="2048" d="M248 78q0 26 12 47t33 33t47 12q37 0 65 -26q27 -25 27 -65q0 -37 -27 -63q-28 -26 -64 -26v-1q-38 0 -66 26q-27 25 -27 63zM930 78q0 40 27 65q28 26 66 26q37 0 65 -26q27 -25 27 -65q0 -38 -27 -63q-28 -26 -64 -26h-1q-38 0 -66 26q-27 25 -27 63zM1613 77 q0 26 12 47t33 33t47 12q37 0 65 -26q27 -25 27 -65q0 -38 -27 -63q-28 -26 -64 -26v-1q-38 0 -66 26q-27 26 -27 63z" />
<glyph unicode="&#x202f;" horiz-adv-x="391" />
<glyph unicode="&#x2039;" horiz-adv-x="574" d="M114 501l262 460h116l-260 -460l259 -461h-115z" />
<glyph unicode="&#x203a;" horiz-adv-x="566" d="M99 961h116l262 -460l-262 -461h-115l259 461z" />
<glyph unicode="&#x205f;" horiz-adv-x="489" />
<glyph unicode="&#x20ac;" horiz-adv-x="1219" d="M23 509v98h118q-3 39 -3 81q0 50 4 82h-119v98h134q24 111 77 207t129 164q77 69 178 108q102 39 217 39q215 0 384 -119l-67 -86q-139 99 -317 99q-175 0 -304 -114q-128 -113 -175 -299h621v-98h-638q-4 -32 -4 -82t4 -81h638v-98h-621q16 -63 44 -122q27 -57 63 -102 q35 -44 80 -81q43 -35 91 -58q50 -24 99 -35q51 -12 103 -12q191 0 330 103l59 -85q-173 -122 -393 -122q-101 0 -196 34q-97 35 -177 97q-81 63 -141 162q-59 98 -85 222h-133z" />
<glyph unicode="&#x2122;" horiz-adv-x="1394" d="M50 1378v77h480v-77h-199v-586h-84v586h-197zM634 792v663h87l240 -426l240 426h86v-663h-83v507l-214 -372h-58l-216 372v-507h-82z" />
<glyph unicode="&#x25fc;" horiz-adv-x="995" d="M0 0v995h995v-995h-995z" />
</font>
</defs>
</svg>
